{"glyphs":{"0":{"ha":1021,"x_min":29,"x_max":992,"o":"m 511 981 q 766 918 657 981 q 933 744 875 856 q 992 488 992 632 q 933 230 992 342 q 766 56 875 118 q 511 -7 657 -7 q 256 56 365 -7 q 88 230 147 118 q 29 488 29 342 q 88 744 29 632 q 256 918 147 856 q 511 981 365 981 m 424 846 q 393 719 400 804 q 388 499 388 667 l 622 771 q 597 846 614 817 q 511 899 569 899 q 424 846 453 899 m 597 128 q 628 254 621 169 q 635 472 635 321 l 400 199 q 424 128 408 151 q 511 75 453 75 q 597 128 569 75 z "},"1":{"ha":693,"x_min":39,"x_max":654,"o":"m 654 988 l 654 0 l 200 0 l 200 768 l 39 725 l 39 824 l 654 988 z "},"2":{"ha":976,"x_min":39,"x_max":938,"o":"m 39 0 l 343 458 q 500 776 500 688 q 471 849 500 822 q 392 876 442 876 q 274 839 324 876 q 195 749 224 801 q 160 650 167 696 l 75 650 q 212 892 101 803 q 507 981 322 981 q 694 947 606 981 q 838 845 783 914 q 893 676 893 776 q 883 589 893 632 q 850 501 874 550 q 800 411 826 453 l 586 83 l 938 83 l 938 0 l 39 0 z "},"3":{"ha":1068,"x_min":39,"x_max":1029,"o":"m 529 -8 q 269 40 376 -8 q 104 175 161 89 q 39 371 47 261 l 125 371 q 179 222 135 283 q 289 131 224 161 q 428 100 354 101 q 593 166 532 100 q 654 340 654 232 q 578 519 654 451 q 333 586 503 586 l 485 882 l 135 882 l 135 965 l 975 965 l 822 667 q 974 541 918 621 q 1029 357 1029 461 q 968 165 1029 247 q 794 37 907 82 q 529 -8 681 -8 z "},"4":{"ha":1163,"x_min":19,"x_max":1133,"o":"m 467 196 l 19 196 l 600 972 l 929 972 l 929 279 l 1133 279 l 1133 196 l 929 196 l 929 0 l 467 0 l 467 196 m 467 279 l 467 638 l 203 279 l 467 279 z "},"5":{"ha":1029,"x_min":29,"x_max":1000,"o":"m 519 -7 q 258 42 365 -7 q 94 176 151 90 q 29 371 38 261 l 114 371 q 169 223 125 283 q 279 132 214 163 q 418 101 344 101 q 567 151 513 101 q 621 278 621 201 q 556 418 621 371 q 403 478 490 465 q 178 497 315 492 l 92 501 l 157 972 l 893 972 l 893 890 l 538 890 l 519 732 q 876 635 751 725 q 1000 378 1000 546 q 943 179 1000 267 q 777 42 886 92 q 519 -7 668 -7 z "},"6":{"ha":1014,"x_min":29,"x_max":985,"o":"m 513 -7 q 269 38 379 -7 q 94 172 158 83 q 29 388 29 261 q 51 515 29 450 q 128 671 74 579 l 303 972 l 757 972 l 600 700 q 792 655 704 696 q 933 540 881 614 q 985 368 985 467 q 922 167 985 251 q 752 38 860 82 q 513 -7 644 -7 m 513 75 q 575 113 554 75 q 597 215 593 149 q 600 336 600 242 l 600 356 q 597 478 600 451 q 575 581 593 544 q 513 617 556 617 q 450 581 468 617 q 426 478 431 546 q 424 356 424 425 l 424 336 q 426 215 424 268 q 450 113 431 147 q 513 75 469 75 z "},"7":{"ha":1065,"x_min":39,"x_max":1046,"o":"m 538 890 l 39 890 l 39 972 l 1046 972 l 678 0 l 207 0 l 538 890 z "},"8":{"ha":1190,"x_min":39,"x_max":1151,"o":"m 596 -8 q 194 64 349 -8 q 39 299 39 136 q 97 463 39 399 q 240 550 154 526 q 128 621 172 571 q 85 747 85 671 q 596 979 85 979 q 1106 747 1106 979 q 1062 621 1106 671 q 950 550 1018 571 q 1094 463 1036 526 q 1151 299 1151 399 q 997 64 1151 136 q 596 -8 842 -8 m 596 594 q 654 619 636 594 q 678 740 678 653 l 678 746 l 678 751 q 654 872 678 839 q 596 897 636 897 q 538 872 554 897 q 513 751 513 839 l 513 746 l 513 740 q 538 619 513 653 q 596 594 554 594 m 596 74 q 658 107 640 74 q 682 196 675 132 q 685 299 685 218 q 682 401 685 379 q 658 481 678 453 q 596 513 638 513 q 532 481 553 513 q 508 401 513 449 q 506 299 506 357 q 508 196 506 240 q 532 107 515 135 q 596 74 551 74 z "},"9":{"ha":1014,"x_min":29,"x_max":985,"o":"m 415 272 q 222 317 310 276 q 81 432 133 358 q 29 604 29 506 q 92 806 29 721 q 262 935 154 892 q 501 979 369 979 q 745 934 635 979 q 920 801 856 889 q 985 586 985 713 q 963 459 985 524 q 886 301 940 394 l 713 0 l 257 0 l 415 272 m 501 356 q 565 392 546 356 q 588 494 583 428 q 590 617 590 547 l 590 636 q 588 757 590 704 q 565 860 583 825 q 501 897 544 897 q 439 860 460 897 q 417 757 421 825 q 414 636 414 704 l 414 617 q 417 494 414 547 q 439 392 421 428 q 501 356 458 356 z "},"\u0000":{"ha":0,"x_min":0,"x_max":0,"o":""},"\r":{"ha":593,"x_min":0,"x_max":0,"o":""}," ":{"ha":593,"x_min":0,"x_max":0,"o":""},"A":{"ha":1253,"x_min":25,"x_max":1228,"o":"m 392 972 l 797 972 l 1228 0 l 703 0 l 557 322 l 251 322 l 126 0 l 25 0 l 392 972 m 518 407 l 392 689 l 282 407 l 518 407 z "},"Á":{"ha":1253,"x_min":25,"x_max":1228,"o":"m 392 972 l 797 972 l 1228 0 l 703 0 l 557 322 l 251 322 l 126 0 l 25 0 l 392 972 m 518 407 l 392 689 l 282 407 l 518 407 m 614 1225 l 1008 1225 l 792 1036 l 396 1036 l 614 1225 z "},"Â":{"ha":1253,"x_min":25,"x_max":1228,"o":"m 392 972 l 797 972 l 1228 0 l 703 0 l 557 322 l 251 322 l 126 0 l 25 0 l 392 972 m 518 407 l 392 689 l 282 407 l 518 407 m 594 1225 l 900 1036 l 288 1036 l 594 1225 z "},"Ä":{"ha":1253,"x_min":25,"x_max":1228,"o":"m 392 972 l 797 972 l 1228 0 l 703 0 l 557 322 l 251 322 l 126 0 l 25 0 l 392 972 m 518 407 l 392 689 l 282 407 l 518 407 m 431 1031 q 354 1056 386 1031 q 322 1131 322 1082 q 353 1206 322 1179 q 431 1232 385 1232 q 506 1206 475 1232 q 538 1131 538 1179 q 506 1056 538 1082 q 431 1031 475 1031 m 760 1031 q 684 1056 715 1031 q 653 1131 653 1082 q 684 1206 653 1179 q 760 1232 715 1232 q 835 1206 804 1232 q 867 1131 867 1179 q 835 1056 867 1082 q 760 1031 804 1031 z "},"À":{"ha":1253,"x_min":25,"x_max":1228,"o":"m 392 972 l 797 972 l 1228 0 l 703 0 l 557 322 l 251 322 l 126 0 l 25 0 l 392 972 m 518 407 l 392 689 l 282 407 l 518 407 m 178 1225 l 574 1225 l 790 1036 l 396 1036 l 178 1225 z "},"Ā":{"ha":1253,"x_min":25,"x_max":1228,"o":"m 392 972 l 797 972 l 1228 0 l 703 0 l 557 322 l 251 322 l 126 0 l 25 0 l 392 972 m 518 407 l 392 689 l 282 407 l 518 407 m 285 1225 l 897 1225 l 897 1036 l 285 1036 l 285 1225 z "},"Å":{"ha":1253,"x_min":25,"x_max":1228,"o":"m 392 972 l 797 972 l 1228 0 l 703 0 l 557 322 l 251 322 l 126 0 l 25 0 l 392 972 m 518 407 l 392 689 l 282 407 l 518 407 m 594 1022 q 447 1047 504 1022 q 389 1140 389 1072 q 594 1260 389 1260 q 799 1140 799 1260 q 741 1047 799 1072 q 594 1022 683 1022 m 594 1085 q 622 1100 615 1085 q 628 1140 628 1115 q 622 1182 628 1167 q 594 1197 615 1197 q 566 1182 572 1197 q 560 1140 560 1167 q 566 1100 560 1115 q 594 1085 572 1085 z "},"Ã":{"ha":1253,"x_min":25,"x_max":1228,"o":"m 392 972 l 797 972 l 1228 0 l 703 0 l 557 322 l 251 322 l 126 0 l 25 0 l 392 972 m 518 407 l 392 689 l 282 407 l 518 407 m 846 1225 q 815 1187 839 1203 q 751 1171 792 1171 q 694 1178 719 1171 q 628 1200 668 1185 q 550 1226 585 1217 q 471 1235 515 1235 q 307 1177 365 1235 q 235 1036 249 1119 l 344 1036 q 374 1076 351 1060 q 438 1092 397 1092 q 497 1084 469 1092 q 561 1063 524 1076 q 640 1035 604 1044 q 719 1026 675 1026 q 883 1084 825 1026 q 954 1225 942 1142 l 846 1225 z "},"Æ":{"ha":1974,"x_min":25,"x_max":1935,"o":"m 1413 890 l 1413 531 l 1669 531 l 1669 447 l 1413 447 l 1413 83 l 1935 83 l 1935 0 l 926 0 l 926 322 l 604 322 l 483 0 l 25 0 l 388 972 l 1935 972 l 1935 890 l 1413 890 m 926 407 l 926 888 l 817 888 l 636 407 l 926 407 z "},"B":{"ha":1279,"x_min":50,"x_max":1235,"o":"m 50 972 l 976 972 q 1106 938 1047 972 q 1200 845 1165 904 q 1235 715 1235 786 q 1201 586 1235 647 q 1113 488 1168 525 q 1201 387 1168 449 q 1235 257 1235 325 q 1200 128 1235 188 q 1106 35 1165 69 q 976 0 1047 0 l 50 0 l 50 972 m 558 526 q 651 551 608 526 q 717 617 693 575 q 742 708 742 660 q 717 801 742 758 q 651 868 693 843 q 558 893 608 893 l 538 893 l 538 528 q 558 526 544 526 m 558 81 q 651 105 608 81 q 717 172 693 129 q 742 264 742 214 q 717 355 742 313 q 651 422 693 397 q 558 446 608 446 l 538 446 l 538 82 q 558 81 544 81 z "},"C":{"ha":1121,"x_min":39,"x_max":1082,"o":"m 751 90 q 917 175 856 90 q 996 381 978 260 l 1082 381 q 983 125 1063 231 q 883 38 939 67 q 759 1 826 10 q 583 -7 692 -7 q 335 23 431 -7 q 172 121 240 53 q 39 488 39 254 q 158 853 39 733 q 332 956 236 931 q 583 981 428 981 q 816 960 726 981 q 963 875 906 940 q 1036 744 1010 821 q 1067 593 1063 668 l 988 593 q 958 722 982 656 q 882 835 933 788 q 751 883 831 883 q 631 818 676 883 q 569 667 590 767 q 554 488 554 590 q 593 225 554 325 q 751 90 643 90 z "},"Ç":{"ha":1121,"x_min":39,"x_max":1082,"o":"m 1082 381 q 983 125 1063 231 q 856 25 929 53 q 671 -6 783 -3 l 651 -64 q 764 -175 764 -86 q 706 -267 764 -240 q 560 -293 647 -293 q 413 -268 471 -293 q 353 -175 356 -243 l 419 -175 q 451 -217 424 -204 q 515 -231 479 -231 q 576 -214 558 -231 q 594 -175 594 -197 q 564 -131 594 -144 q 460 -118 533 -118 l 489 -4 q 304 34 379 4 q 172 121 229 64 q 39 488 39 254 q 158 853 39 733 q 332 956 236 931 q 583 981 428 981 q 816 960 726 981 q 963 875 906 940 q 1036 744 1010 821 q 1067 593 1063 668 l 988 593 q 958 722 982 656 q 882 835 933 788 q 751 883 831 883 q 631 818 676 883 q 569 667 590 767 q 554 488 554 590 q 593 225 554 325 q 751 90 643 90 q 917 175 856 90 q 996 381 978 260 l 1082 381 z "},"D":{"ha":1285,"x_min":39,"x_max":1256,"o":"m 39 972 l 769 972 q 1113 831 968 972 q 1256 488 1256 688 q 1113 142 1256 285 q 769 0 969 0 l 39 0 l 39 972 m 608 81 q 722 132 688 81 q 764 274 756 182 q 771 488 771 333 q 763 715 771 607 q 721 840 754 797 q 608 892 686 892 l 525 892 l 525 81 l 608 81 z "},"Ð":{"ha":1285,"x_min":-69,"x_max":1256,"o":"m 1113 831 q 1256 488 1256 688 q 1113 142 1256 285 q 769 0 969 0 l 39 0 l 39 447 l -69 447 l -69 531 l 39 531 l 39 972 l 769 972 q 1113 831 968 972 m 764 274 q 771 488 771 333 q 763 715 771 607 q 721 840 754 797 q 608 892 686 892 l 525 892 l 525 531 l 635 531 l 635 447 l 525 447 l 525 81 l 608 81 q 722 132 688 81 q 764 274 756 182 z "},"E":{"ha":1089,"x_min":39,"x_max":1049,"o":"m 39 972 l 1049 972 l 1049 890 l 528 890 l 528 531 l 783 531 l 783 447 l 528 447 l 528 83 l 1049 83 l 1049 0 l 39 0 l 39 972 z "},"É":{"ha":1089,"x_min":39,"x_max":1049,"o":"m 39 972 l 1049 972 l 1049 890 l 528 890 l 528 531 l 783 531 l 783 447 l 528 447 l 528 83 l 1049 83 l 1049 0 l 39 0 l 39 972 m 564 1225 l 958 1225 l 742 1036 l 346 1036 l 564 1225 z "},"Ê":{"ha":1089,"x_min":39,"x_max":1049,"o":"m 39 972 l 1049 972 l 1049 890 l 528 890 l 528 531 l 783 531 l 783 447 l 528 447 l 528 83 l 1049 83 l 1049 0 l 39 0 l 39 972 m 544 1225 l 850 1036 l 238 1036 l 544 1225 z "},"Ë":{"ha":1089,"x_min":39,"x_max":1049,"o":"m 39 972 l 1049 972 l 1049 890 l 528 890 l 528 531 l 783 531 l 783 447 l 528 447 l 528 83 l 1049 83 l 1049 0 l 39 0 l 39 972 m 381 1031 q 304 1056 336 1031 q 272 1131 272 1082 q 303 1206 272 1179 q 381 1232 335 1232 q 456 1206 425 1232 q 488 1131 488 1179 q 456 1056 488 1082 q 381 1031 425 1031 m 710 1031 q 634 1056 665 1031 q 603 1131 603 1082 q 634 1206 603 1179 q 710 1232 665 1232 q 785 1206 754 1232 q 817 1131 817 1179 q 785 1056 817 1082 q 710 1031 754 1031 z "},"È":{"ha":1089,"x_min":39,"x_max":1049,"o":"m 39 972 l 1049 972 l 1049 890 l 528 890 l 528 531 l 783 531 l 783 447 l 528 447 l 528 83 l 1049 83 l 1049 0 l 39 0 l 39 972 m 128 1225 l 524 1225 l 740 1036 l 346 1036 l 128 1225 z "},"Ē":{"ha":1089,"x_min":39,"x_max":1049,"o":"m 39 972 l 1049 972 l 1049 890 l 528 890 l 528 531 l 783 531 l 783 447 l 528 447 l 528 83 l 1049 83 l 1049 0 l 39 0 l 39 972 m 235 1225 l 847 1225 l 847 1036 l 235 1036 l 235 1225 z "},"F":{"ha":1088,"x_min":39,"x_max":1047,"o":"m 39 972 l 1047 972 l 1047 890 l 526 890 l 526 531 l 782 531 l 782 447 l 526 447 l 526 0 l 39 0 l 39 972 z "},"G":{"ha":1217,"x_min":39,"x_max":1178,"o":"m 39 488 q 160 853 39 733 q 333 956 238 931 q 585 981 429 981 q 817 960 729 981 q 963 875 906 940 q 1037 744 1010 821 q 1068 593 1064 667 l 989 593 q 959 722 983 656 q 883 835 935 788 q 753 883 832 883 q 631 818 679 883 q 571 667 589 761 q 554 488 554 583 q 593 225 554 331 q 753 90 644 90 l 753 475 l 1178 475 l 1178 0 q 725 -6 978 0 l 585 -7 q 337 23 432 -7 q 174 121 242 53 q 39 488 39 256 z "},"H":{"ha":1329,"x_min":39,"x_max":1290,"o":"m 39 972 l 511 972 l 511 538 l 818 538 l 818 972 l 1290 972 l 1290 0 l 818 0 l 818 444 l 511 444 l 511 0 l 39 0 l 39 972 z "},"I":{"ha":532,"x_min":39,"x_max":492,"o":"m 39 972 l 492 972 l 492 0 l 39 0 l 39 972 z "},"Í":{"ha":532,"x_min":39,"x_max":679,"o":"m 39 972 l 492 972 l 492 0 l 39 0 l 39 972 m 285 1225 l 679 1225 l 463 1036 l 67 1036 l 285 1225 z "},"Î":{"ha":532,"x_min":-42,"x_max":571,"o":"m 39 972 l 492 972 l 492 0 l 39 0 l 39 972 m 265 1225 l 571 1036 l -42 1036 l 265 1225 z "},"Ï":{"ha":532,"x_min":-7,"x_max":538,"o":"m 39 972 l 492 972 l 492 0 l 39 0 l 39 972 m 101 1031 q 25 1056 57 1031 q -7 1131 -7 1082 q 24 1206 -7 1179 q 101 1232 56 1232 q 177 1206 146 1232 q 208 1131 208 1179 q 177 1056 208 1082 q 101 1031 146 1031 m 431 1031 q 355 1056 386 1031 q 324 1131 324 1082 q 355 1206 324 1179 q 431 1232 386 1232 q 506 1206 475 1232 q 538 1131 538 1179 q 506 1056 538 1082 q 431 1031 475 1031 z "},"Ì":{"ha":532,"x_min":-151,"x_max":492,"o":"m 39 972 l 492 972 l 492 0 l 39 0 l 39 972 m -151 1225 l 244 1225 l 461 1036 l 67 1036 l -151 1225 z "},"Ī":{"ha":532,"x_min":-44,"x_max":568,"o":"m 39 972 l 492 972 l 492 0 l 39 0 l 39 972 m -44 1225 l 568 1225 l 568 1036 l -44 1036 l -44 1225 z "},"J":{"ha":1011,"x_min":39,"x_max":972,"o":"m 506 -7 q 239 19 339 -7 q 89 109 139 44 q 39 292 39 174 l 39 368 l 121 368 l 121 292 q 282 103 121 103 q 398 148 354 103 q 442 292 442 193 l 442 972 l 972 972 l 972 292 q 865 67 972 140 q 506 -7 757 -7 z "},"K":{"ha":1343,"x_min":39,"x_max":1304,"o":"m 39 972 l 526 972 l 526 0 l 39 0 l 39 972 m 526 488 l 754 972 l 1239 972 l 996 488 l 1304 0 l 814 0 l 526 488 z "},"L":{"ha":1094,"x_min":39,"x_max":1054,"o":"m 39 972 l 526 972 l 526 83 l 1054 83 l 1054 0 l 39 0 l 39 972 z "},"M":{"ha":1293,"x_min":39,"x_max":1253,"o":"m 121 647 l 121 0 l 39 0 l 39 972 l 444 972 l 647 567 l 808 972 l 1253 972 l 1253 0 l 808 0 l 808 729 l 525 0 l 404 0 l 121 647 z "},"N":{"ha":975,"x_min":39,"x_max":936,"o":"m 39 972 l 447 972 l 853 486 l 853 972 l 936 972 l 936 0 l 610 0 l 124 647 l 124 0 l 39 0 l 39 972 z "},"Ñ":{"ha":975,"x_min":39,"x_max":936,"o":"m 39 972 l 447 972 l 853 486 l 853 972 l 936 972 l 936 0 l 610 0 l 124 647 l 124 0 l 39 0 l 39 972 m 739 1225 q 708 1187 732 1203 q 644 1171 685 1171 q 587 1178 613 1171 q 521 1200 561 1185 q 443 1226 478 1217 q 364 1235 408 1235 q 200 1177 258 1235 q 128 1036 142 1119 l 238 1036 q 267 1076 244 1060 q 331 1092 290 1092 q 390 1084 363 1092 q 454 1063 417 1076 q 533 1035 497 1044 q 613 1026 568 1026 q 776 1084 718 1026 q 847 1225 835 1142 l 739 1225 z "},"O":{"ha":1375,"x_min":29,"x_max":1346,"o":"m 689 -7 q 353 50 503 -7 q 116 219 203 107 q 29 488 29 331 q 117 754 29 643 q 353 923 204 865 q 689 981 503 981 q 1023 923 874 981 q 1259 754 1172 865 q 1346 488 1346 643 q 1259 219 1346 331 q 1023 50 1172 107 q 689 -7 874 -7 m 689 75 q 775 128 747 75 q 807 271 799 168 q 811 488 811 325 q 804 719 811 651 q 774 846 800 803 q 689 899 746 899 q 601 846 631 899 q 571 719 578 804 q 565 488 565 647 q 569 271 565 307 q 600 128 575 175 q 689 75 629 75 z "},"Ó":{"ha":1375,"x_min":29,"x_max":1346,"o":"m 689 -7 q 353 50 503 -7 q 116 219 203 107 q 29 488 29 331 q 117 754 29 643 q 353 923 204 865 q 689 981 503 981 q 1023 923 874 981 q 1259 754 1172 865 q 1346 488 1346 643 q 1259 219 1346 331 q 1023 50 1172 107 q 689 -7 874 -7 m 689 75 q 775 128 747 75 q 807 271 799 168 q 811 488 811 325 q 804 719 811 651 q 774 846 800 803 q 689 899 746 899 q 601 846 631 899 q 571 719 578 804 q 565 488 565 647 q 569 271 565 307 q 600 128 575 175 q 689 75 629 75 m 708 1233 l 1103 1233 l 886 1044 l 490 1044 l 708 1233 z "},"Ô":{"ha":1375,"x_min":29,"x_max":1346,"o":"m 689 -7 q 353 50 503 -7 q 116 219 203 107 q 29 488 29 331 q 117 754 29 643 q 353 923 204 865 q 689 981 503 981 q 1023 923 874 981 q 1259 754 1172 865 q 1346 488 1346 643 q 1259 219 1346 331 q 1023 50 1172 107 q 689 -7 874 -7 m 689 75 q 775 128 747 75 q 807 271 799 168 q 811 488 811 325 q 804 719 811 651 q 774 846 800 803 q 689 899 746 899 q 601 846 631 899 q 571 719 578 804 q 565 488 565 647 q 569 271 565 307 q 600 128 575 175 q 689 75 629 75 m 689 1233 l 994 1044 l 382 1044 l 689 1233 z "},"Ö":{"ha":1375,"x_min":29,"x_max":1346,"o":"m 689 -7 q 353 50 503 -7 q 116 219 203 107 q 29 488 29 331 q 117 754 29 643 q 353 923 204 865 q 689 981 503 981 q 1023 923 874 981 q 1259 754 1172 865 q 1346 488 1346 643 q 1259 219 1346 331 q 1023 50 1172 107 q 689 -7 874 -7 m 689 75 q 775 128 747 75 q 807 271 799 168 q 811 488 811 325 q 804 719 811 651 q 774 846 800 803 q 689 899 746 899 q 601 846 631 899 q 571 719 578 804 q 565 488 565 647 q 569 271 565 307 q 600 128 575 175 q 689 75 629 75 m 525 1039 q 449 1065 481 1039 q 417 1139 417 1090 q 448 1214 417 1188 q 525 1240 479 1240 q 601 1214 569 1240 q 632 1139 632 1188 q 601 1065 632 1090 q 525 1039 569 1039 m 854 1039 q 778 1065 810 1039 q 747 1139 747 1090 q 778 1214 747 1188 q 854 1240 810 1240 q 930 1214 899 1240 q 961 1139 961 1188 q 930 1065 961 1090 q 854 1039 899 1039 z "},"Ò":{"ha":1375,"x_min":29,"x_max":1346,"o":"m 689 -7 q 353 50 503 -7 q 116 219 203 107 q 29 488 29 331 q 117 754 29 643 q 353 923 204 865 q 689 981 503 981 q 1023 923 874 981 q 1259 754 1172 865 q 1346 488 1346 643 q 1259 219 1346 331 q 1023 50 1172 107 q 689 -7 874 -7 m 689 75 q 775 128 747 75 q 807 271 799 168 q 811 488 811 325 q 804 719 811 651 q 774 846 800 803 q 689 899 746 899 q 601 846 631 899 q 571 719 578 804 q 565 488 565 647 q 569 271 565 307 q 600 128 575 175 q 689 75 629 75 m 272 1233 l 668 1233 l 885 1044 l 490 1044 l 272 1233 z "},"Ō":{"ha":1375,"x_min":29,"x_max":1346,"o":"m 689 -7 q 353 50 503 -7 q 116 219 203 107 q 29 488 29 331 q 117 754 29 643 q 353 923 204 865 q 689 981 503 981 q 1023 923 874 981 q 1259 754 1172 865 q 1346 488 1346 643 q 1259 219 1346 331 q 1023 50 1172 107 q 689 -7 874 -7 m 689 75 q 775 128 747 75 q 807 271 799 168 q 811 488 811 325 q 804 719 811 651 q 774 846 800 803 q 689 899 746 899 q 601 846 631 899 q 571 719 578 804 q 565 488 565 647 q 569 271 565 307 q 600 128 575 175 q 689 75 629 75 m 379 1233 l 992 1233 l 992 1044 l 379 1044 l 379 1233 z "},"Ø":{"ha":1375,"x_min":29,"x_max":1346,"o":"m 689 981 q 1023 923 874 981 q 1259 754 1172 865 q 1346 488 1346 643 q 1259 219 1346 331 q 1023 50 1172 107 q 689 -7 874 -7 q 353 50 503 -7 q 116 219 203 107 q 29 488 29 331 q 117 754 29 643 q 353 923 204 865 q 689 981 503 981 m 601 846 q 571 719 578 804 q 565 510 565 653 l 797 779 q 774 846 789 824 q 689 899 746 899 q 601 846 631 899 m 775 128 q 807 271 799 168 q 811 482 811 325 l 576 208 q 600 128 585 160 q 689 75 629 75 q 775 128 747 75 z "},"Õ":{"ha":1375,"x_min":29,"x_max":1346,"o":"m 689 -7 q 353 50 503 -7 q 116 219 203 107 q 29 488 29 331 q 117 754 29 643 q 353 923 204 865 q 689 981 503 981 q 1023 923 874 981 q 1259 754 1172 865 q 1346 488 1346 643 q 1259 219 1346 331 q 1023 50 1172 107 q 689 -7 874 -7 m 689 75 q 775 128 747 75 q 807 271 799 168 q 811 488 811 325 q 804 719 811 651 q 774 846 800 803 q 689 899 746 899 q 601 846 631 899 q 571 719 578 804 q 565 488 565 647 q 569 271 565 307 q 600 128 575 175 q 689 75 629 75 m 940 1233 q 910 1195 933 1211 q 846 1179 886 1179 q 788 1186 814 1179 q 722 1208 763 1193 q 644 1234 679 1225 q 565 1243 610 1243 q 401 1185 460 1243 q 329 1044 343 1128 l 439 1044 q 469 1084 446 1068 q 532 1100 492 1100 q 591 1092 564 1100 q 656 1071 618 1085 q 734 1044 699 1053 q 814 1035 769 1035 q 978 1092 919 1035 q 1049 1233 1036 1150 l 940 1233 z "},"Œ":{"ha":1890,"x_min":29,"x_max":1850,"o":"m 29 488 q 117 752 29 643 q 359 917 206 861 q 708 972 513 972 l 1850 972 l 1850 890 l 1329 890 l 1329 531 l 1585 531 l 1585 447 l 1329 447 l 1329 83 l 1850 83 l 1850 0 l 708 0 q 339 58 492 0 q 108 226 186 117 q 29 488 29 335 m 565 488 q 569 271 565 307 q 600 128 575 175 q 689 75 629 75 q 775 128 747 75 q 807 271 799 168 q 811 488 811 325 q 804 719 811 651 q 774 846 800 803 q 689 899 746 899 q 601 846 631 899 q 571 719 578 804 q 565 488 565 647 z "},"P":{"ha":1222,"x_min":39,"x_max":1193,"o":"m 39 972 l 921 972 q 1118 902 1043 972 q 1193 713 1193 832 q 1158 581 1193 642 q 1063 483 1124 519 q 924 447 1001 447 l 500 446 l 500 0 l 39 0 l 39 972 m 549 526 q 641 551 599 526 q 708 617 683 575 q 732 708 732 660 q 708 801 732 758 q 641 868 683 843 q 549 893 599 893 l 500 893 l 500 526 l 549 526 z "},"Þ":{"ha":1222,"x_min":39,"x_max":1193,"o":"m 39 972 l 500 972 l 500 764 l 921 764 q 1118 694 1043 764 q 1193 503 1193 624 q 1158 371 1193 432 q 1063 274 1124 310 q 924 238 1001 238 l 500 238 l 500 0 l 39 0 l 39 972 m 549 317 q 641 341 599 317 q 708 408 683 365 q 732 500 732 450 q 708 592 732 550 q 641 659 683 635 q 549 683 599 683 l 500 683 l 500 317 l 549 317 z "},"Q":{"ha":1375,"x_min":29,"x_max":1346,"o":"m 1346 488 q 1201 156 1346 286 l 1346 -89 l 1031 -89 q 908 -65 968 -89 q 807 0 847 -42 q 688 -7 742 -7 q 352 50 501 -7 q 116 219 203 107 q 29 488 29 331 q 116 754 29 643 q 353 923 203 865 q 688 981 503 981 q 1022 923 872 981 q 1259 754 1172 865 q 1346 488 1346 643 m 688 75 q 775 128 747 75 q 807 271 799 168 q 811 488 811 325 q 804 719 811 629 q 774 846 800 803 q 688 899 746 899 q 601 846 631 899 q 571 719 578 804 q 564 488 564 651 q 569 271 564 319 q 600 128 576 169 q 688 75 629 75 z "},"R":{"ha":1260,"x_min":39,"x_max":1219,"o":"m 39 972 l 968 972 q 1094 938 1036 972 q 1185 847 1151 904 q 1219 721 1219 789 q 1164 557 1219 631 q 1024 463 1108 483 q 1147 383 1099 442 q 1194 251 1194 325 l 1194 0 l 729 0 l 729 301 q 713 371 729 346 q 668 414 693 400 q 606 436 640 429 q 538 444 569 443 l 500 446 l 500 0 l 39 0 l 39 972 m 549 526 q 641 551 599 526 q 708 617 683 575 q 732 708 732 660 q 708 801 732 758 q 641 868 683 843 q 549 893 599 893 l 500 893 l 500 525 l 549 526 z "},"S":{"ha":1132,"x_min":29,"x_max":1101,"o":"m 772 624 q 1019 506 938 579 q 1101 317 1101 433 q 1043 150 1101 224 q 872 35 985 76 q 597 -7 758 -7 q 262 42 407 -7 q 35 163 117 92 l 81 225 q 263 128 153 168 q 499 88 372 88 q 623 111 581 88 q 665 178 665 135 q 517 294 665 253 l 336 347 q 109 471 189 392 q 29 658 29 550 q 86 822 29 749 q 252 938 143 896 q 514 981 361 981 q 783 947 660 981 q 983 867 906 914 l 938 803 q 781 867 872 840 q 590 893 690 893 q 456 866 503 893 q 410 792 410 839 q 444 728 410 756 q 576 675 479 701 l 772 624 z "},"ẞ":{"ha":1318,"x_min":39,"x_max":1274,"o":"m 39 625 q 199 901 39 822 q 610 981 360 981 q 884 949 760 981 q 1084 851 1008 917 q 1160 685 1160 785 q 1085 522 1160 588 q 1219 419 1165 492 q 1274 257 1274 347 q 1240 128 1274 188 q 1147 35 1206 69 q 1017 0 1088 0 l 576 0 l 576 81 l 597 81 q 690 105 647 81 q 756 172 732 129 q 781 263 781 214 q 756 355 781 313 q 690 422 732 397 q 597 446 647 446 l 576 446 l 576 526 q 597 525 583 525 q 697 581 667 525 q 726 718 726 638 q 698 847 726 794 q 610 899 669 899 q 554 874 572 899 q 532 814 536 850 q 528 718 528 778 l 528 0 l 39 0 l 39 625 z "},"T":{"ha":1276,"x_min":29,"x_max":1247,"o":"m 394 890 l 29 890 l 29 972 l 1247 972 l 1247 890 l 881 890 l 881 0 l 394 0 l 394 890 z "},"U":{"ha":1011,"x_min":39,"x_max":972,"o":"m 506 -7 q 147 67 254 -7 q 39 292 39 140 l 39 972 l 569 972 l 569 292 q 613 148 569 193 q 729 103 657 103 q 890 292 890 103 l 890 972 l 972 972 l 972 292 q 922 109 972 174 q 772 19 872 44 q 506 -7 672 -7 z "},"Ú":{"ha":1011,"x_min":39,"x_max":972,"o":"m 506 -7 q 147 67 254 -7 q 39 292 39 140 l 39 972 l 569 972 l 569 292 q 613 148 569 193 q 729 103 657 103 q 890 292 890 103 l 890 972 l 972 972 l 972 292 q 922 109 972 174 q 772 19 872 44 q 506 -7 672 -7 m 525 1225 l 919 1225 l 703 1036 l 307 1036 l 525 1225 z "},"Û":{"ha":1011,"x_min":39,"x_max":972,"o":"m 506 -7 q 147 67 254 -7 q 39 292 39 140 l 39 972 l 569 972 l 569 292 q 613 148 569 193 q 729 103 657 103 q 890 292 890 103 l 890 972 l 972 972 l 972 292 q 922 109 972 174 q 772 19 872 44 q 506 -7 672 -7 m 506 1225 l 811 1036 l 199 1036 l 506 1225 z "},"Ü":{"ha":1011,"x_min":39,"x_max":972,"o":"m 506 -7 q 147 67 254 -7 q 39 292 39 140 l 39 972 l 569 972 l 569 292 q 613 148 569 193 q 729 103 657 103 q 890 292 890 103 l 890 972 l 972 972 l 972 292 q 922 109 972 174 q 772 19 872 44 q 506 -7 672 -7 m 342 1031 q 265 1056 297 1031 q 233 1131 233 1082 q 265 1206 233 1179 q 342 1232 296 1232 q 417 1206 386 1232 q 449 1131 449 1179 q 417 1056 449 1082 q 342 1031 386 1031 m 671 1031 q 595 1056 626 1031 q 564 1131 564 1082 q 595 1206 564 1179 q 671 1232 626 1232 q 747 1206 715 1232 q 778 1131 778 1179 q 747 1056 778 1082 q 671 1031 715 1031 z "},"Ù":{"ha":1011,"x_min":39,"x_max":972,"o":"m 506 -7 q 147 67 254 -7 q 39 292 39 140 l 39 972 l 569 972 l 569 292 q 613 148 569 193 q 729 103 657 103 q 890 292 890 103 l 890 972 l 972 972 l 972 292 q 922 109 972 174 q 772 19 872 44 q 506 -7 672 -7 m 89 1225 l 485 1225 l 701 1036 l 307 1036 l 89 1225 z "},"Ū":{"ha":1011,"x_min":39,"x_max":972,"o":"m 506 -7 q 147 67 254 -7 q 39 292 39 140 l 39 972 l 569 972 l 569 292 q 613 148 569 193 q 729 103 657 103 q 890 292 890 103 l 890 972 l 972 972 l 972 292 q 922 109 972 174 q 772 19 872 44 q 506 -7 672 -7 m 196 1225 l 808 1225 l 808 1036 l 196 1036 l 196 1225 z "},"V":{"ha":1171,"x_min":15,"x_max":1157,"o":"m 15 972 l 465 972 l 783 256 l 1050 972 l 1157 972 l 790 0 l 446 0 l 15 972 z "},"W":{"ha":2003,"x_min":15,"x_max":1988,"o":"m 15 972 l 488 972 l 813 238 l 1086 972 l 1294 972 l 1614 254 l 1881 972 l 1988 972 l 1621 0 l 1200 0 l 999 456 l 826 0 l 446 0 l 15 972 z "},"Ẃ":{"ha":2003,"x_min":15,"x_max":1988,"o":"m 15 972 l 488 972 l 813 238 l 1086 972 l 1294 972 l 1614 254 l 1881 972 l 1988 972 l 1621 0 l 1200 0 l 999 456 l 826 0 l 446 0 l 15 972 m 1210 1225 l 1604 1225 l 1388 1036 l 992 1036 l 1210 1225 z "},"Ŵ":{"ha":2003,"x_min":15,"x_max":1988,"o":"m 15 972 l 488 972 l 813 238 l 1086 972 l 1294 972 l 1614 254 l 1881 972 l 1988 972 l 1621 0 l 1200 0 l 999 456 l 826 0 l 446 0 l 15 972 m 1190 1225 l 1496 1036 l 883 1036 l 1190 1225 z "},"Ẅ":{"ha":2003,"x_min":15,"x_max":1988,"o":"m 15 972 l 488 972 l 813 238 l 1086 972 l 1294 972 l 1614 254 l 1881 972 l 1988 972 l 1621 0 l 1200 0 l 999 456 l 826 0 l 446 0 l 15 972 m 1026 1031 q 950 1056 982 1031 q 918 1131 918 1082 q 949 1206 918 1179 q 1026 1232 981 1232 q 1102 1206 1071 1232 q 1133 1131 1133 1179 q 1102 1056 1133 1082 q 1026 1031 1071 1031 m 1356 1031 q 1280 1056 1311 1031 q 1249 1131 1249 1082 q 1280 1206 1249 1179 q 1356 1232 1311 1232 q 1431 1206 1400 1232 q 1463 1131 1463 1179 q 1431 1056 1463 1082 q 1356 1031 1400 1031 z "},"Ẁ":{"ha":2003,"x_min":15,"x_max":1988,"o":"m 15 972 l 488 972 l 813 238 l 1086 972 l 1294 972 l 1614 254 l 1881 972 l 1988 972 l 1621 0 l 1200 0 l 999 456 l 826 0 l 446 0 l 15 972 m 774 1225 l 1169 1225 l 1386 1036 l 992 1036 l 774 1225 z "},"X":{"ha":1106,"x_min":39,"x_max":1067,"o":"m 308 490 l 67 972 l 553 972 l 747 586 l 958 972 l 1067 972 l 797 483 l 1039 0 l 553 0 l 360 388 l 146 0 l 39 0 l 308 490 z "},"Y":{"ha":1106,"x_min":29,"x_max":1075,"o":"m 331 446 l 29 972 l 574 972 l 774 575 l 968 972 l 1075 972 l 817 446 l 817 0 l 331 0 l 331 446 z "},"Ý":{"ha":1106,"x_min":29,"x_max":1075,"o":"m 331 446 l 29 972 l 574 972 l 774 575 l 968 972 l 1075 972 l 817 446 l 817 0 l 331 0 l 331 446 m 572 1225 l 967 1225 l 750 1036 l 354 1036 l 572 1225 z "},"Ŷ":{"ha":1106,"x_min":29,"x_max":1075,"o":"m 331 446 l 29 972 l 574 972 l 774 575 l 968 972 l 1075 972 l 817 446 l 817 0 l 331 0 l 331 446 m 553 1225 l 858 1036 l 246 1036 l 553 1225 z "},"Ÿ":{"ha":1106,"x_min":29,"x_max":1075,"o":"m 331 446 l 29 972 l 574 972 l 774 575 l 968 972 l 1075 972 l 817 446 l 817 0 l 331 0 l 331 446 m 389 1031 q 313 1056 344 1031 q 281 1131 281 1082 q 312 1206 281 1179 q 389 1232 343 1232 q 465 1206 433 1232 q 496 1131 496 1179 q 465 1056 496 1082 q 389 1031 433 1031 m 718 1031 q 642 1056 674 1031 q 611 1131 611 1082 q 642 1206 611 1179 q 718 1232 674 1232 q 794 1206 763 1232 q 825 1131 825 1179 q 794 1056 825 1082 q 718 1031 763 1031 z "},"Ỳ":{"ha":1106,"x_min":29,"x_max":1075,"o":"m 331 446 l 29 972 l 574 972 l 774 575 l 968 972 l 1075 972 l 817 446 l 817 0 l 331 0 l 331 446 m 136 1225 l 532 1225 l 749 1036 l 354 1036 l 136 1225 z "},"Z":{"ha":1174,"x_min":39,"x_max":1133,"o":"m 567 892 l 39 892 l 39 972 l 1133 972 l 607 81 l 1133 81 l 1133 0 l 39 0 l 567 892 z "},"a":{"ha":1253,"x_min":25,"x_max":1228,"o":"m 392 972 l 797 972 l 1228 0 l 703 0 l 557 322 l 251 322 l 126 0 l 25 0 l 392 972 m 518 407 l 392 689 l 282 407 l 518 407 z "},"á":{"ha":1253,"x_min":25,"x_max":1228,"o":"m 392 972 l 797 972 l 1228 0 l 703 0 l 557 322 l 251 322 l 126 0 l 25 0 l 392 972 m 518 407 l 392 689 l 282 407 l 518 407 m 614 1225 l 1008 1225 l 792 1036 l 396 1036 l 614 1225 z "},"â":{"ha":1253,"x_min":25,"x_max":1228,"o":"m 392 972 l 797 972 l 1228 0 l 703 0 l 557 322 l 251 322 l 126 0 l 25 0 l 392 972 m 518 407 l 392 689 l 282 407 l 518 407 m 594 1225 l 900 1036 l 288 1036 l 594 1225 z "},"ä":{"ha":1253,"x_min":25,"x_max":1228,"o":"m 392 972 l 797 972 l 1228 0 l 703 0 l 557 322 l 251 322 l 126 0 l 25 0 l 392 972 m 518 407 l 392 689 l 282 407 l 518 407 m 431 1031 q 354 1056 386 1031 q 322 1131 322 1082 q 353 1206 322 1179 q 431 1232 385 1232 q 506 1206 475 1232 q 538 1131 538 1179 q 506 1056 538 1082 q 431 1031 475 1031 m 760 1031 q 684 1056 715 1031 q 653 1131 653 1082 q 684 1206 653 1179 q 760 1232 715 1232 q 835 1206 804 1232 q 867 1131 867 1179 q 835 1056 867 1082 q 760 1031 804 1031 z "},"à":{"ha":1253,"x_min":25,"x_max":1228,"o":"m 392 972 l 797 972 l 1228 0 l 703 0 l 557 322 l 251 322 l 126 0 l 25 0 l 392 972 m 518 407 l 392 689 l 282 407 l 518 407 m 178 1225 l 574 1225 l 790 1036 l 396 1036 l 178 1225 z "},"ā":{"ha":1253,"x_min":25,"x_max":1228,"o":"m 392 972 l 797 972 l 1228 0 l 703 0 l 557 322 l 251 322 l 126 0 l 25 0 l 392 972 m 518 407 l 392 689 l 282 407 l 518 407 m 285 1225 l 897 1225 l 897 1036 l 285 1036 l 285 1225 z "},"å":{"ha":1253,"x_min":25,"x_max":1228,"o":"m 392 972 l 797 972 l 1228 0 l 703 0 l 557 322 l 251 322 l 126 0 l 25 0 l 392 972 m 518 407 l 392 689 l 282 407 l 518 407 m 594 1022 q 447 1047 504 1022 q 389 1140 389 1072 q 594 1260 389 1260 q 799 1140 799 1260 q 741 1047 799 1072 q 594 1022 683 1022 m 594 1085 q 622 1100 615 1085 q 628 1140 628 1115 q 622 1182 628 1167 q 594 1197 615 1197 q 566 1182 572 1197 q 560 1140 560 1167 q 566 1100 560 1115 q 594 1085 572 1085 z "},"ã":{"ha":1253,"x_min":25,"x_max":1228,"o":"m 392 972 l 797 972 l 1228 0 l 703 0 l 557 322 l 251 322 l 126 0 l 25 0 l 392 972 m 518 407 l 392 689 l 282 407 l 518 407 m 846 1225 q 815 1187 839 1203 q 751 1171 792 1171 q 694 1178 719 1171 q 628 1200 668 1185 q 550 1226 585 1217 q 471 1235 515 1235 q 307 1177 365 1235 q 235 1036 249 1119 l 344 1036 q 374 1076 351 1060 q 438 1092 397 1092 q 497 1084 469 1092 q 561 1063 524 1076 q 640 1035 604 1044 q 719 1026 675 1026 q 883 1084 825 1026 q 954 1225 942 1142 l 846 1225 z "},"æ":{"ha":1974,"x_min":25,"x_max":1935,"o":"m 1413 890 l 1413 531 l 1669 531 l 1669 447 l 1413 447 l 1413 83 l 1935 83 l 1935 0 l 926 0 l 926 322 l 604 322 l 483 0 l 25 0 l 388 972 l 1935 972 l 1935 890 l 1413 890 m 926 407 l 926 888 l 817 888 l 636 407 l 926 407 z "},"b":{"ha":1279,"x_min":50,"x_max":1235,"o":"m 50 972 l 976 972 q 1106 938 1047 972 q 1200 845 1165 904 q 1235 715 1235 786 q 1201 586 1235 647 q 1113 488 1168 525 q 1201 387 1168 449 q 1235 257 1235 325 q 1200 128 1235 188 q 1106 35 1165 69 q 976 0 1047 0 l 50 0 l 50 972 m 558 526 q 651 551 608 526 q 717 617 693 575 q 742 708 742 660 q 717 801 742 758 q 651 868 693 843 q 558 893 608 893 l 538 893 l 538 528 q 558 526 544 526 m 558 81 q 651 105 608 81 q 717 172 693 129 q 742 264 742 214 q 717 355 742 313 q 651 422 693 397 q 558 446 608 446 l 538 446 l 538 82 q 558 81 544 81 z "},"c":{"ha":1121,"x_min":39,"x_max":1082,"o":"m 751 90 q 917 175 856 90 q 996 381 978 260 l 1082 381 q 983 125 1063 231 q 883 38 939 67 q 759 1 826 10 q 583 -7 692 -7 q 335 23 431 -7 q 172 121 240 53 q 39 488 39 254 q 158 853 39 733 q 332 956 236 931 q 583 981 428 981 q 816 960 726 981 q 963 875 906 940 q 1036 744 1010 821 q 1067 593 1063 668 l 988 593 q 958 722 982 656 q 882 835 933 788 q 751 883 831 883 q 631 818 676 883 q 569 667 590 767 q 554 488 554 590 q 593 225 554 325 q 751 90 643 90 z "},"ç":{"ha":1121,"x_min":39,"x_max":1082,"o":"m 1082 381 q 983 125 1063 231 q 856 25 929 53 q 671 -6 783 -3 l 651 -64 q 764 -175 764 -86 q 706 -267 764 -240 q 560 -293 647 -293 q 413 -268 471 -293 q 353 -175 356 -243 l 419 -175 q 451 -217 424 -204 q 515 -231 479 -231 q 576 -214 558 -231 q 594 -175 594 -197 q 564 -131 594 -144 q 460 -118 533 -118 l 489 -4 q 304 34 379 4 q 172 121 229 64 q 39 488 39 254 q 158 853 39 733 q 332 956 236 931 q 583 981 428 981 q 816 960 726 981 q 963 875 906 940 q 1036 744 1010 821 q 1067 593 1063 668 l 988 593 q 958 722 982 656 q 882 835 933 788 q 751 883 831 883 q 631 818 676 883 q 569 667 590 767 q 554 488 554 590 q 593 225 554 325 q 751 90 643 90 q 917 175 856 90 q 996 381 978 260 l 1082 381 z "},"d":{"ha":1285,"x_min":39,"x_max":1256,"o":"m 39 972 l 769 972 q 1113 831 968 972 q 1256 488 1256 688 q 1113 142 1256 285 q 769 0 969 0 l 39 0 l 39 972 m 608 81 q 722 132 688 81 q 764 274 756 182 q 771 488 771 333 q 763 715 771 607 q 721 840 754 797 q 608 892 686 892 l 525 892 l 525 81 l 608 81 z "},"ð":{"ha":1285,"x_min":-69,"x_max":1256,"o":"m 1113 831 q 1256 488 1256 688 q 1113 142 1256 285 q 769 0 969 0 l 39 0 l 39 447 l -69 447 l -69 531 l 39 531 l 39 972 l 769 972 q 1113 831 968 972 m 764 274 q 771 488 771 333 q 763 715 771 607 q 721 840 754 797 q 608 892 686 892 l 525 892 l 525 531 l 635 531 l 635 447 l 525 447 l 525 81 l 608 81 q 722 132 688 81 q 764 274 756 182 z "},"e":{"ha":1089,"x_min":39,"x_max":1049,"o":"m 39 972 l 1049 972 l 1049 890 l 528 890 l 528 531 l 783 531 l 783 447 l 528 447 l 528 83 l 1049 83 l 1049 0 l 39 0 l 39 972 z "},"é":{"ha":1089,"x_min":39,"x_max":1049,"o":"m 39 972 l 1049 972 l 1049 890 l 528 890 l 528 531 l 783 531 l 783 447 l 528 447 l 528 83 l 1049 83 l 1049 0 l 39 0 l 39 972 m 564 1225 l 958 1225 l 742 1036 l 346 1036 l 564 1225 z "},"ê":{"ha":1089,"x_min":39,"x_max":1049,"o":"m 39 972 l 1049 972 l 1049 890 l 528 890 l 528 531 l 783 531 l 783 447 l 528 447 l 528 83 l 1049 83 l 1049 0 l 39 0 l 39 972 m 544 1225 l 850 1036 l 238 1036 l 544 1225 z "},"ë":{"ha":1089,"x_min":39,"x_max":1049,"o":"m 39 972 l 1049 972 l 1049 890 l 528 890 l 528 531 l 783 531 l 783 447 l 528 447 l 528 83 l 1049 83 l 1049 0 l 39 0 l 39 972 m 381 1031 q 304 1056 336 1031 q 272 1131 272 1082 q 303 1206 272 1179 q 381 1232 335 1232 q 456 1206 425 1232 q 488 1131 488 1179 q 456 1056 488 1082 q 381 1031 425 1031 m 710 1031 q 634 1056 665 1031 q 603 1131 603 1082 q 634 1206 603 1179 q 710 1232 665 1232 q 785 1206 754 1232 q 817 1131 817 1179 q 785 1056 817 1082 q 710 1031 754 1031 z "},"è":{"ha":1089,"x_min":39,"x_max":1049,"o":"m 39 972 l 1049 972 l 1049 890 l 528 890 l 528 531 l 783 531 l 783 447 l 528 447 l 528 83 l 1049 83 l 1049 0 l 39 0 l 39 972 m 128 1225 l 524 1225 l 740 1036 l 346 1036 l 128 1225 z "},"ē":{"ha":1089,"x_min":39,"x_max":1049,"o":"m 39 972 l 1049 972 l 1049 890 l 528 890 l 528 531 l 783 531 l 783 447 l 528 447 l 528 83 l 1049 83 l 1049 0 l 39 0 l 39 972 m 235 1225 l 847 1225 l 847 1036 l 235 1036 l 235 1225 z "},"f":{"ha":1088,"x_min":39,"x_max":1047,"o":"m 39 972 l 1047 972 l 1047 890 l 526 890 l 526 531 l 782 531 l 782 447 l 526 447 l 526 0 l 39 0 l 39 972 z "},"g":{"ha":1217,"x_min":39,"x_max":1178,"o":"m 39 488 q 160 853 39 733 q 333 956 238 931 q 585 981 429 981 q 817 960 729 981 q 963 875 906 940 q 1037 744 1010 821 q 1068 593 1064 667 l 989 593 q 959 722 983 656 q 883 835 935 788 q 753 883 832 883 q 631 818 679 883 q 571 667 589 761 q 554 488 554 583 q 593 225 554 331 q 753 90 644 90 l 753 475 l 1178 475 l 1178 0 q 725 -6 978 0 l 585 -7 q 337 23 432 -7 q 174 121 242 53 q 39 488 39 256 z "},"h":{"ha":1329,"x_min":39,"x_max":1290,"o":"m 39 972 l 511 972 l 511 538 l 818 538 l 818 972 l 1290 972 l 1290 0 l 818 0 l 818 444 l 511 444 l 511 0 l 39 0 l 39 972 z "},"i":{"ha":532,"x_min":39,"x_max":492,"o":"m 39 972 l 492 972 l 492 0 l 39 0 l 39 972 z "},"ı":{"ha":532,"x_min":39,"x_max":492,"o":"m 39 972 l 492 972 l 492 0 l 39 0 l 39 972 z "},"í":{"ha":532,"x_min":39,"x_max":679,"o":"m 39 972 l 492 972 l 492 0 l 39 0 l 39 972 z "},"î":{"ha":532,"x_min":-42,"x_max":571,"o":"m 39 972 l 492 972 l 492 0 l 39 0 l 39 972 z "},"ï":{"ha":532,"x_min":-7,"x_max":538,"o":"m 39 972 l 492 972 l 492 0 l 39 0 l 39 972 z "},"ì":{"ha":532,"x_min":-151,"x_max":492,"o":"m 39 972 l 492 972 l 492 0 l 39 0 l 39 972 z "},"ī":{"ha":532,"x_min":-44,"x_max":568,"o":"m 39 972 l 492 972 l 492 0 l 39 0 l 39 972 m -44 1225 l 568 1225 l 568 1036 l -44 1036 l -44 1225 z "},"j":{"ha":1011,"x_min":39,"x_max":972,"o":"m 506 -7 q 239 19 339 -7 q 89 109 139 44 q 39 292 39 174 l 39 368 l 121 368 l 121 292 q 282 103 121 103 q 398 148 354 103 q 442 292 442 193 l 442 972 l 972 972 l 972 292 q 865 67 972 140 q 506 -7 757 -7 z "},"k":{"ha":1343,"x_min":39,"x_max":1304,"o":"m 39 972 l 526 972 l 526 0 l 39 0 l 39 972 m 526 488 l 754 972 l 1239 972 l 996 488 l 1304 0 l 814 0 l 526 488 z "},"l":{"ha":1094,"x_min":39,"x_max":1054,"o":"m 39 972 l 526 972 l 526 83 l 1054 83 l 1054 0 l 39 0 l 39 972 z "},"m":{"ha":1293,"x_min":39,"x_max":1253,"o":"m 121 647 l 121 0 l 39 0 l 39 972 l 444 972 l 647 567 l 808 972 l 1253 972 l 1253 0 l 808 0 l 808 729 l 525 0 l 404 0 l 121 647 z "},"n":{"ha":975,"x_min":39,"x_max":936,"o":"m 39 972 l 447 972 l 853 486 l 853 972 l 936 972 l 936 0 l 610 0 l 124 647 l 124 0 l 39 0 l 39 972 z "},"ñ":{"ha":975,"x_min":39,"x_max":936,"o":"m 39 972 l 447 972 l 853 486 l 853 972 l 936 972 l 936 0 l 610 0 l 124 647 l 124 0 l 39 0 l 39 972 m 739 1225 q 708 1187 732 1203 q 644 1171 685 1171 q 587 1178 613 1171 q 521 1200 561 1185 q 443 1226 478 1217 q 364 1235 408 1235 q 200 1177 258 1235 q 128 1036 142 1119 l 238 1036 q 267 1076 244 1060 q 331 1092 290 1092 q 390 1084 363 1092 q 454 1063 417 1076 q 533 1035 497 1044 q 613 1026 568 1026 q 776 1084 718 1026 q 847 1225 835 1142 l 739 1225 z "},"o":{"ha":1375,"x_min":29,"x_max":1346,"o":"m 689 -7 q 353 50 503 -7 q 116 219 203 107 q 29 488 29 331 q 117 754 29 643 q 353 923 204 865 q 689 981 503 981 q 1023 923 874 981 q 1259 754 1172 865 q 1346 488 1346 643 q 1259 219 1346 331 q 1023 50 1172 107 q 689 -7 874 -7 m 689 75 q 775 128 747 75 q 807 271 799 168 q 811 488 811 325 q 804 719 811 651 q 774 846 800 803 q 689 899 746 899 q 601 846 631 899 q 571 719 578 804 q 565 488 565 647 q 569 271 565 307 q 600 128 575 175 q 689 75 629 75 z "},"ó":{"ha":1375,"x_min":29,"x_max":1346,"o":"m 689 -7 q 353 50 503 -7 q 116 219 203 107 q 29 488 29 331 q 117 754 29 643 q 353 923 204 865 q 689 981 503 981 q 1023 923 874 981 q 1259 754 1172 865 q 1346 488 1346 643 q 1259 219 1346 331 q 1023 50 1172 107 q 689 -7 874 -7 m 689 75 q 775 128 747 75 q 807 271 799 168 q 811 488 811 325 q 804 719 811 651 q 774 846 800 803 q 689 899 746 899 q 601 846 631 899 q 571 719 578 804 q 565 488 565 647 q 569 271 565 307 q 600 128 575 175 q 689 75 629 75 m 708 1233 l 1103 1233 l 886 1044 l 490 1044 l 708 1233 z "},"ô":{"ha":1375,"x_min":29,"x_max":1346,"o":"m 689 -7 q 353 50 503 -7 q 116 219 203 107 q 29 488 29 331 q 117 754 29 643 q 353 923 204 865 q 689 981 503 981 q 1023 923 874 981 q 1259 754 1172 865 q 1346 488 1346 643 q 1259 219 1346 331 q 1023 50 1172 107 q 689 -7 874 -7 m 689 75 q 775 128 747 75 q 807 271 799 168 q 811 488 811 325 q 804 719 811 651 q 774 846 800 803 q 689 899 746 899 q 601 846 631 899 q 571 719 578 804 q 565 488 565 647 q 569 271 565 307 q 600 128 575 175 q 689 75 629 75 m 689 1233 l 994 1044 l 382 1044 l 689 1233 z "},"ö":{"ha":1375,"x_min":29,"x_max":1346,"o":"m 689 -7 q 353 50 503 -7 q 116 219 203 107 q 29 488 29 331 q 117 754 29 643 q 353 923 204 865 q 689 981 503 981 q 1023 923 874 981 q 1259 754 1172 865 q 1346 488 1346 643 q 1259 219 1346 331 q 1023 50 1172 107 q 689 -7 874 -7 m 689 75 q 775 128 747 75 q 807 271 799 168 q 811 488 811 325 q 804 719 811 651 q 774 846 800 803 q 689 899 746 899 q 601 846 631 899 q 571 719 578 804 q 565 488 565 647 q 569 271 565 307 q 600 128 575 175 q 689 75 629 75 m 525 1039 q 449 1065 481 1039 q 417 1139 417 1090 q 448 1214 417 1188 q 525 1240 479 1240 q 601 1214 569 1240 q 632 1139 632 1188 q 601 1065 632 1090 q 525 1039 569 1039 m 854 1039 q 778 1065 810 1039 q 747 1139 747 1090 q 778 1214 747 1188 q 854 1240 810 1240 q 930 1214 899 1240 q 961 1139 961 1188 q 930 1065 961 1090 q 854 1039 899 1039 z "},"ò":{"ha":1375,"x_min":29,"x_max":1346,"o":"m 689 -7 q 353 50 503 -7 q 116 219 203 107 q 29 488 29 331 q 117 754 29 643 q 353 923 204 865 q 689 981 503 981 q 1023 923 874 981 q 1259 754 1172 865 q 1346 488 1346 643 q 1259 219 1346 331 q 1023 50 1172 107 q 689 -7 874 -7 m 689 75 q 775 128 747 75 q 807 271 799 168 q 811 488 811 325 q 804 719 811 651 q 774 846 800 803 q 689 899 746 899 q 601 846 631 899 q 571 719 578 804 q 565 488 565 647 q 569 271 565 307 q 600 128 575 175 q 689 75 629 75 m 272 1233 l 668 1233 l 885 1044 l 490 1044 l 272 1233 z "},"ō":{"ha":1375,"x_min":29,"x_max":1346,"o":"m 689 -7 q 353 50 503 -7 q 116 219 203 107 q 29 488 29 331 q 117 754 29 643 q 353 923 204 865 q 689 981 503 981 q 1023 923 874 981 q 1259 754 1172 865 q 1346 488 1346 643 q 1259 219 1346 331 q 1023 50 1172 107 q 689 -7 874 -7 m 689 75 q 775 128 747 75 q 807 271 799 168 q 811 488 811 325 q 804 719 811 651 q 774 846 800 803 q 689 899 746 899 q 601 846 631 899 q 571 719 578 804 q 565 488 565 647 q 569 271 565 307 q 600 128 575 175 q 689 75 629 75 m 379 1233 l 992 1233 l 992 1044 l 379 1044 l 379 1233 z "},"ø":{"ha":1375,"x_min":29,"x_max":1346,"o":"m 689 981 q 1023 923 874 981 q 1259 754 1172 865 q 1346 488 1346 643 q 1259 219 1346 331 q 1023 50 1172 107 q 689 -7 874 -7 q 353 50 503 -7 q 116 219 203 107 q 29 488 29 331 q 117 754 29 643 q 353 923 204 865 q 689 981 503 981 m 601 846 q 571 719 578 804 q 565 510 565 653 l 797 779 q 774 846 789 824 q 689 899 746 899 q 601 846 631 899 m 775 128 q 807 271 799 168 q 811 482 811 325 l 576 208 q 600 128 585 160 q 689 75 629 75 q 775 128 747 75 z "},"õ":{"ha":1375,"x_min":29,"x_max":1346,"o":"m 689 -7 q 353 50 503 -7 q 116 219 203 107 q 29 488 29 331 q 117 754 29 643 q 353 923 204 865 q 689 981 503 981 q 1023 923 874 981 q 1259 754 1172 865 q 1346 488 1346 643 q 1259 219 1346 331 q 1023 50 1172 107 q 689 -7 874 -7 m 689 75 q 775 128 747 75 q 807 271 799 168 q 811 488 811 325 q 804 719 811 651 q 774 846 800 803 q 689 899 746 899 q 601 846 631 899 q 571 719 578 804 q 565 488 565 647 q 569 271 565 307 q 600 128 575 175 q 689 75 629 75 m 940 1233 q 910 1195 933 1211 q 846 1179 886 1179 q 788 1186 814 1179 q 722 1208 763 1193 q 644 1234 679 1225 q 565 1243 610 1243 q 401 1185 460 1243 q 329 1044 343 1128 l 439 1044 q 469 1084 446 1068 q 532 1100 492 1100 q 591 1092 564 1100 q 656 1071 618 1085 q 734 1044 699 1053 q 814 1035 769 1035 q 978 1092 919 1035 q 1049 1233 1036 1150 l 940 1233 z "},"œ":{"ha":1890,"x_min":29,"x_max":1850,"o":"m 29 488 q 117 752 29 643 q 359 917 206 861 q 708 972 513 972 l 1850 972 l 1850 890 l 1329 890 l 1329 531 l 1585 531 l 1585 447 l 1329 447 l 1329 83 l 1850 83 l 1850 0 l 708 0 q 339 58 492 0 q 108 226 186 117 q 29 488 29 335 m 565 488 q 569 271 565 307 q 600 128 575 175 q 689 75 629 75 q 775 128 747 75 q 807 271 799 168 q 811 488 811 325 q 804 719 811 651 q 774 846 800 803 q 689 899 746 899 q 601 846 631 899 q 571 719 578 804 q 565 488 565 647 z "},"p":{"ha":1222,"x_min":39,"x_max":1193,"o":"m 39 972 l 921 972 q 1118 902 1043 972 q 1193 713 1193 832 q 1158 581 1193 642 q 1063 483 1124 519 q 924 447 1001 447 l 500 446 l 500 0 l 39 0 l 39 972 m 549 526 q 641 551 599 526 q 708 617 683 575 q 732 708 732 660 q 708 801 732 758 q 641 868 683 843 q 549 893 599 893 l 500 893 l 500 526 l 549 526 z "},"þ":{"ha":1222,"x_min":39,"x_max":1193,"o":"m 39 972 l 500 972 l 500 764 l 921 764 q 1118 694 1043 764 q 1193 503 1193 624 q 1158 371 1193 432 q 1063 274 1124 310 q 924 238 1001 238 l 500 238 l 500 0 l 39 0 l 39 972 m 549 317 q 641 341 599 317 q 708 408 683 365 q 732 500 732 450 q 708 592 732 550 q 641 659 683 635 q 549 683 599 683 l 500 683 l 500 317 l 549 317 z "},"q":{"ha":1375,"x_min":29,"x_max":1346,"o":"m 1346 488 q 1201 156 1346 286 l 1346 -89 l 1031 -89 q 908 -65 968 -89 q 807 0 847 -42 q 688 -7 742 -7 q 352 50 501 -7 q 116 219 203 107 q 29 488 29 331 q 116 754 29 643 q 353 923 203 865 q 688 981 503 981 q 1022 923 872 981 q 1259 754 1172 865 q 1346 488 1346 643 m 688 75 q 775 128 747 75 q 807 271 799 168 q 811 488 811 325 q 804 719 811 629 q 774 846 800 803 q 688 899 746 899 q 601 846 631 899 q 571 719 578 804 q 564 488 564 651 q 569 271 564 319 q 600 128 576 169 q 688 75 629 75 z "},"r":{"ha":1260,"x_min":39,"x_max":1219,"o":"m 39 972 l 968 972 q 1094 938 1036 972 q 1185 847 1151 904 q 1219 721 1219 789 q 1164 557 1219 631 q 1024 463 1108 483 q 1147 383 1099 442 q 1194 251 1194 325 l 1194 0 l 729 0 l 729 301 q 713 371 729 346 q 668 414 693 400 q 606 436 640 429 q 538 444 569 443 l 500 446 l 500 0 l 39 0 l 39 972 m 549 526 q 641 551 599 526 q 708 617 683 575 q 732 708 732 660 q 708 801 732 758 q 641 868 683 843 q 549 893 599 893 l 500 893 l 500 525 l 549 526 z "},"s":{"ha":1132,"x_min":29,"x_max":1101,"o":"m 772 624 q 1019 506 938 579 q 1101 317 1101 433 q 1043 150 1101 224 q 872 35 985 76 q 597 -7 758 -7 q 262 42 407 -7 q 35 163 117 92 l 81 225 q 263 128 153 168 q 499 88 372 88 q 623 111 581 88 q 665 178 665 135 q 517 294 665 253 l 336 347 q 109 471 189 392 q 29 658 29 550 q 86 822 29 749 q 252 938 143 896 q 514 981 361 981 q 783 947 660 981 q 983 867 906 914 l 938 803 q 781 867 872 840 q 590 893 690 893 q 456 866 503 893 q 410 792 410 839 q 444 728 410 756 q 576 675 479 701 l 772 624 z "},"ß":{"ha":1318,"x_min":39,"x_max":1274,"o":"m 39 625 q 199 901 39 822 q 610 981 360 981 q 884 949 760 981 q 1084 851 1008 917 q 1160 685 1160 785 q 1085 522 1160 588 q 1219 419 1165 492 q 1274 257 1274 347 q 1240 128 1274 188 q 1147 35 1206 69 q 1017 0 1088 0 l 576 0 l 576 81 l 597 81 q 690 105 647 81 q 756 172 732 129 q 781 263 781 214 q 756 355 781 313 q 690 422 732 397 q 597 446 647 446 l 576 446 l 576 526 q 597 525 583 525 q 697 581 667 525 q 726 718 726 638 q 698 847 726 794 q 610 899 669 899 q 554 874 572 899 q 532 814 536 850 q 528 718 528 778 l 528 0 l 39 0 l 39 625 z "},"t":{"ha":1276,"x_min":29,"x_max":1247,"o":"m 394 890 l 29 890 l 29 972 l 1247 972 l 1247 890 l 881 890 l 881 0 l 394 0 l 394 890 z "},"u":{"ha":1011,"x_min":39,"x_max":972,"o":"m 506 -7 q 147 67 254 -7 q 39 292 39 140 l 39 972 l 569 972 l 569 292 q 613 148 569 193 q 729 103 657 103 q 890 292 890 103 l 890 972 l 972 972 l 972 292 q 922 109 972 174 q 772 19 872 44 q 506 -7 672 -7 z "},"ú":{"ha":1011,"x_min":39,"x_max":972,"o":"m 506 -7 q 147 67 254 -7 q 39 292 39 140 l 39 972 l 569 972 l 569 292 q 613 148 569 193 q 729 103 657 103 q 890 292 890 103 l 890 972 l 972 972 l 972 292 q 922 109 972 174 q 772 19 872 44 q 506 -7 672 -7 m 525 1225 l 919 1225 l 703 1036 l 307 1036 l 525 1225 z "},"û":{"ha":1011,"x_min":39,"x_max":972,"o":"m 506 -7 q 147 67 254 -7 q 39 292 39 140 l 39 972 l 569 972 l 569 292 q 613 148 569 193 q 729 103 657 103 q 890 292 890 103 l 890 972 l 972 972 l 972 292 q 922 109 972 174 q 772 19 872 44 q 506 -7 672 -7 m 506 1225 l 811 1036 l 199 1036 l 506 1225 z "},"ü":{"ha":1011,"x_min":39,"x_max":972,"o":"m 506 -7 q 147 67 254 -7 q 39 292 39 140 l 39 972 l 569 972 l 569 292 q 613 148 569 193 q 729 103 657 103 q 890 292 890 103 l 890 972 l 972 972 l 972 292 q 922 109 972 174 q 772 19 872 44 q 506 -7 672 -7 m 342 1031 q 265 1056 297 1031 q 233 1131 233 1082 q 265 1206 233 1179 q 342 1232 296 1232 q 417 1206 386 1232 q 449 1131 449 1179 q 417 1056 449 1082 q 342 1031 386 1031 m 671 1031 q 595 1056 626 1031 q 564 1131 564 1082 q 595 1206 564 1179 q 671 1232 626 1232 q 747 1206 715 1232 q 778 1131 778 1179 q 747 1056 778 1082 q 671 1031 715 1031 z "},"ù":{"ha":1011,"x_min":39,"x_max":972,"o":"m 506 -7 q 147 67 254 -7 q 39 292 39 140 l 39 972 l 569 972 l 569 292 q 613 148 569 193 q 729 103 657 103 q 890 292 890 103 l 890 972 l 972 972 l 972 292 q 922 109 972 174 q 772 19 872 44 q 506 -7 672 -7 m 89 1225 l 485 1225 l 701 1036 l 307 1036 l 89 1225 z "},"ū":{"ha":1011,"x_min":39,"x_max":972,"o":"m 506 -7 q 147 67 254 -7 q 39 292 39 140 l 39 972 l 569 972 l 569 292 q 613 148 569 193 q 729 103 657 103 q 890 292 890 103 l 890 972 l 972 972 l 972 292 q 922 109 972 174 q 772 19 872 44 q 506 -7 672 -7 m 196 1225 l 808 1225 l 808 1036 l 196 1036 l 196 1225 z "},"v":{"ha":1171,"x_min":15,"x_max":1157,"o":"m 15 972 l 465 972 l 783 256 l 1050 972 l 1157 972 l 790 0 l 446 0 l 15 972 z "},"w":{"ha":2003,"x_min":15,"x_max":1988,"o":"m 15 972 l 488 972 l 813 238 l 1086 972 l 1294 972 l 1614 254 l 1881 972 l 1988 972 l 1621 0 l 1200 0 l 999 456 l 826 0 l 446 0 l 15 972 z "},"ẃ":{"ha":2003,"x_min":15,"x_max":1988,"o":"m 15 972 l 488 972 l 813 238 l 1086 972 l 1294 972 l 1614 254 l 1881 972 l 1988 972 l 1621 0 l 1200 0 l 999 456 l 826 0 l 446 0 l 15 972 m 1090 1225 l 1485 1225 l 1268 1036 l 872 1036 l 1090 1225 z "},"ŵ":{"ha":2003,"x_min":15,"x_max":1988,"o":"m 15 972 l 488 972 l 813 238 l 1086 972 l 1294 972 l 1614 254 l 1881 972 l 1988 972 l 1621 0 l 1200 0 l 999 456 l 826 0 l 446 0 l 15 972 m 1071 1225 l 1376 1036 l 764 1036 l 1071 1225 z "},"ẅ":{"ha":2003,"x_min":15,"x_max":1988,"o":"m 15 972 l 488 972 l 813 238 l 1086 972 l 1294 972 l 1614 254 l 1881 972 l 1988 972 l 1621 0 l 1200 0 l 999 456 l 826 0 l 446 0 l 15 972 m 907 1031 q 831 1056 863 1031 q 799 1131 799 1082 q 830 1206 799 1179 q 907 1232 861 1232 q 983 1206 951 1232 q 1014 1131 1014 1179 q 983 1056 1014 1082 q 907 1031 951 1031 m 1236 1031 q 1160 1056 1192 1031 q 1129 1131 1129 1082 q 1160 1206 1129 1179 q 1236 1232 1192 1232 q 1312 1206 1281 1232 q 1343 1131 1343 1179 q 1312 1056 1343 1082 q 1236 1031 1281 1031 z "},"ẁ":{"ha":2003,"x_min":15,"x_max":1988,"o":"m 15 972 l 488 972 l 813 238 l 1086 972 l 1294 972 l 1614 254 l 1881 972 l 1988 972 l 1621 0 l 1200 0 l 999 456 l 826 0 l 446 0 l 15 972 m 654 1225 l 1050 1225 l 1267 1036 l 872 1036 l 654 1225 z "},"x":{"ha":1106,"x_min":39,"x_max":1067,"o":"m 308 490 l 67 972 l 553 972 l 747 586 l 958 972 l 1067 972 l 797 483 l 1039 0 l 553 0 l 360 388 l 146 0 l 39 0 l 308 490 z "},"y":{"ha":1106,"x_min":29,"x_max":1075,"o":"m 331 446 l 29 972 l 574 972 l 774 575 l 968 972 l 1075 972 l 817 446 l 817 0 l 331 0 l 331 446 z "},"ý":{"ha":1106,"x_min":29,"x_max":1075,"o":"m 331 446 l 29 972 l 574 972 l 774 575 l 968 972 l 1075 972 l 817 446 l 817 0 l 331 0 l 331 446 m 572 1225 l 967 1225 l 750 1036 l 354 1036 l 572 1225 z "},"ŷ":{"ha":1106,"x_min":29,"x_max":1075,"o":"m 331 446 l 29 972 l 574 972 l 774 575 l 968 972 l 1075 972 l 817 446 l 817 0 l 331 0 l 331 446 m 553 1225 l 858 1036 l 246 1036 l 553 1225 z "},"ÿ":{"ha":1106,"x_min":29,"x_max":1075,"o":"m 331 446 l 29 972 l 574 972 l 774 575 l 968 972 l 1075 972 l 817 446 l 817 0 l 331 0 l 331 446 m 389 1031 q 313 1056 344 1031 q 281 1131 281 1082 q 312 1206 281 1179 q 389 1232 343 1232 q 465 1206 433 1232 q 496 1131 496 1179 q 465 1056 496 1082 q 389 1031 433 1031 m 718 1031 q 642 1056 674 1031 q 611 1131 611 1082 q 642 1206 611 1179 q 718 1232 674 1232 q 794 1206 763 1232 q 825 1131 825 1179 q 794 1056 825 1082 q 718 1031 763 1031 z "},"ỳ":{"ha":1106,"x_min":29,"x_max":1075,"o":"m 331 446 l 29 972 l 574 972 l 774 575 l 968 972 l 1075 972 l 817 446 l 817 0 l 331 0 l 331 446 m 136 1225 l 532 1225 l 749 1036 l 354 1036 l 136 1225 z "},"z":{"ha":1174,"x_min":39,"x_max":1133,"o":"m 567 892 l 39 892 l 39 972 l 1133 972 l 607 81 l 1133 81 l 1133 0 l 39 0 l 567 892 z "},"ª":{"ha":603,"x_min":39,"x_max":564,"o":"m 200 972 l 375 972 l 564 549 l 335 549 l 285 657 l 149 657 l 107 549 l 39 549 l 200 972 m 258 718 l 211 824 l 171 718 l 258 718 z "},"º":{"ha":646,"x_min":29,"x_max":617,"o":"m 322 540 q 113 599 196 540 q 29 760 29 657 q 113 922 29 864 q 322 981 196 981 q 533 922 450 981 q 617 760 617 864 q 533 598 617 656 q 322 540 450 540 m 322 600 q 374 638 360 600 q 389 760 389 676 q 374 882 389 843 q 322 921 360 921 q 272 882 286 921 q 258 760 258 843 q 272 639 258 678 q 322 600 286 600 z "},"¹":{"ha":347,"x_min":39,"x_max":308,"o":"m 110 839 l 39 818 l 39 908 l 308 981 l 308 549 l 110 549 l 110 839 z "},"²":{"ha":475,"x_min":39,"x_max":436,"o":"m 174 750 q 216 816 201 790 q 231 864 231 842 q 221 887 231 879 q 196 894 211 894 q 156 878 174 894 q 132 835 139 861 l 49 835 q 112 942 60 903 q 246 981 164 981 q 365 946 315 981 q 415 847 415 911 q 411 808 415 829 q 375 729 403 771 l 311 631 l 436 631 l 436 549 l 39 549 l 174 750 z "},"³":{"ha":519,"x_min":39,"x_max":481,"o":"m 258 540 q 100 587 156 540 q 39 708 44 633 l 121 708 q 213 622 129 625 q 264 642 244 622 q 283 696 283 661 q 253 763 283 736 q 163 789 224 789 l 214 890 l 76 890 l 76 972 l 456 972 l 388 840 q 456 784 431 819 q 481 703 481 749 q 420 585 481 629 q 258 540 360 540 z "},"⁴":{"ha":607,"x_min":39,"x_max":567,"o":"m 275 603 l 39 603 l 314 972 l 478 972 l 478 686 l 567 686 l 567 603 l 478 603 l 478 549 l 275 549 l 275 603 m 275 686 l 275 778 l 207 686 l 275 686 z "},"⁄":{"ha":886,"x_min":29,"x_max":857,"o":"m 594 972 l 857 972 l 293 0 l 29 0 l 594 972 z "},"½":{"ha":1119,"x_min":89,"x_max":1019,"o":"m 158 839 l 89 818 l 89 908 l 357 981 l 357 549 l 158 549 l 158 839 m 674 972 l 936 972 l 372 0 l 108 0 l 674 972 m 758 203 q 801 269 788 244 q 815 317 815 294 q 805 340 815 332 q 781 347 794 347 q 741 331 758 347 q 717 286 724 314 l 633 286 q 697 393 644 354 q 831 432 749 432 q 950 397 900 432 q 1000 299 1000 363 q 996 260 1000 281 q 960 182 988 225 l 896 83 l 1019 83 l 1019 0 l 624 0 l 758 203 z "},"¼":{"ha":1143,"x_min":89,"x_max":1054,"o":"m 158 839 l 89 818 l 89 908 l 357 981 l 357 549 l 158 549 l 158 839 m 674 972 l 936 972 l 372 0 l 108 0 l 674 972 m 763 56 l 526 56 l 801 425 l 965 425 l 965 139 l 1054 139 l 1054 56 l 965 56 l 965 0 l 763 0 l 763 56 m 763 139 l 763 229 l 694 139 l 763 139 z "},"¾":{"ha":1276,"x_min":79,"x_max":1171,"o":"m 297 540 q 140 587 196 540 q 79 708 85 633 l 160 708 q 251 622 171 625 q 303 642 285 622 q 322 696 322 661 q 293 763 322 736 q 203 789 264 789 l 254 890 l 115 890 l 115 972 l 494 972 l 428 840 q 495 784 471 819 q 519 703 519 749 q 459 585 519 629 q 297 540 399 540 m 790 972 l 1053 972 l 489 0 l 225 0 l 790 972 m 879 56 l 643 56 l 918 425 l 1082 425 l 1082 139 l 1171 139 l 1171 56 l 1082 56 l 1082 0 l 879 0 l 879 56 m 879 139 l 879 229 l 811 139 l 879 139 z "},".":{"ha":354,"x_min":39,"x_max":314,"o":"m 39 269 l 314 269 l 314 0 l 39 0 l 39 269 z "},",":{"ha":354,"x_min":39,"x_max":314,"o":"m 39 269 l 314 269 l 238 -156 l 39 -156 l 39 269 z "},":":{"ha":374,"x_min":50,"x_max":324,"o":"m 50 882 l 324 882 l 324 613 l 50 613 l 50 882 m 50 269 l 324 269 l 324 0 l 50 0 l 50 269 z "},";":{"ha":374,"x_min":50,"x_max":324,"o":"m 50 882 l 324 882 l 324 613 l 50 613 l 50 882 m 50 269 l 324 269 l 247 -156 l 50 -156 l 50 269 z "},"…":{"ha":1021,"x_min":39,"x_max":982,"o":"m 372 269 l 647 269 l 647 0 l 372 0 l 372 269 m 707 269 l 982 269 l 982 0 l 707 0 l 707 269 m 39 269 l 314 269 l 314 0 l 39 0 l 39 269 z "},"!":{"ha":483,"x_min":39,"x_max":444,"o":"m 44 972 l 439 972 l 439 310 l 44 310 l 44 972 m 242 -7 q 39 126 39 -7 q 242 258 39 258 q 444 126 444 258 q 242 -7 444 -7 z "},"¡":{"ha":483,"x_min":39,"x_max":444,"o":"m 242 714 q 39 846 39 714 q 242 979 39 979 q 444 846 444 979 q 242 714 444 714 m 44 664 l 439 664 l 439 0 l 44 0 l 44 664 z "},"?":{"ha":860,"x_min":29,"x_max":829,"o":"m 231 318 q 263 451 231 393 q 357 582 296 510 q 434 686 408 643 q 460 778 460 729 q 431 850 460 822 q 350 878 401 878 q 232 840 283 878 q 151 749 181 801 q 114 650 121 696 l 29 650 q 163 892 56 804 q 453 981 269 981 q 637 947 551 981 q 776 846 722 914 q 829 679 829 778 q 799 555 829 606 q 711 444 768 504 q 652 377 672 404 q 626 318 632 350 l 231 318 m 429 -7 q 226 126 226 -7 q 429 258 226 258 q 631 126 631 258 q 429 -7 631 -7 z "},"¿":{"ha":860,"x_min":31,"x_max":831,"o":"m 431 979 q 633 846 633 979 q 431 714 633 714 q 229 846 229 714 q 431 979 229 979 m 629 654 q 597 521 629 579 q 503 390 564 463 q 426 286 451 329 q 400 194 400 243 q 429 122 400 150 q 510 94 458 94 q 628 133 576 94 q 709 224 679 171 q 746 322 739 276 l 831 322 q 697 80 804 168 q 407 -8 590 -8 q 223 25 308 -8 q 84 126 138 58 q 31 293 31 194 q 61 417 31 367 q 149 528 92 468 q 208 595 188 568 q 233 654 228 622 l 629 654 z "},"·":{"ha":393,"x_min":58,"x_max":333,"o":"m 196 350 q 94 389 129 350 q 58 492 58 428 q 94 595 58 556 q 196 635 131 635 q 297 595 261 635 q 333 492 333 556 q 298 389 333 428 q 196 350 263 350 z "},"•":{"ha":532,"x_min":60,"x_max":472,"o":"m 265 285 q 116 344 172 285 q 60 494 60 404 q 116 644 60 585 q 265 703 172 703 q 416 644 360 703 q 472 494 472 585 q 416 344 472 404 q 265 285 360 285 z "},"*":{"ha":703,"x_min":39,"x_max":664,"o":"m 511 625 l 606 494 l 446 379 l 351 508 l 257 379 l 97 494 l 192 625 l 39 675 l 100 863 l 253 813 l 253 972 l 450 972 l 450 813 l 603 863 l 664 675 l 511 625 z "},"#":{"ha":1592,"x_min":29,"x_max":1563,"o":"m 1386 671 l 1253 317 l 1563 317 l 1563 231 l 1221 231 l 1133 0 l 708 0 l 796 231 l 603 231 l 515 0 l 92 0 l 179 231 l 29 231 l 29 317 l 211 317 l 344 671 l 29 671 l 29 757 l 378 757 l 458 972 l 882 972 l 801 757 l 994 757 l 1076 972 l 1500 972 l 1419 757 l 1563 757 l 1563 671 l 1386 671 m 963 671 l 768 671 l 635 317 l 828 317 l 963 671 z "},"/":{"ha":829,"x_min":29,"x_max":800,"o":"m 507 1129 l 800 1129 l 315 -156 l 29 -156 l 507 1129 z "},"\\":{"ha":921,"x_min":29,"x_max":892,"o":"m 29 1129 l 322 1129 l 892 -156 l 599 -156 l 29 1129 z "},"(":{"ha":454,"x_min":39,"x_max":572,"o":"m 572 -156 q 299 -102 415 -156 q 110 93 182 -49 q 39 488 39 235 q 110 881 39 739 q 299 1076 182 1022 q 572 1129 415 1129 l 572 1044 q 442 985 485 1044 q 387 811 400 925 q 374 488 374 697 q 387 162 374 276 q 442 -12 400 47 q 572 -71 485 -71 l 572 -156 z "},")":{"ha":454,"x_min":-118,"x_max":415,"o":"m -118 -71 q 13 -12 -29 -71 q 68 161 56 47 q 81 488 81 275 q 68 812 81 699 q 13 985 56 925 q -118 1044 -29 1044 l -118 1129 q 157 1076 40 1129 q 344 881 274 1024 q 415 488 415 739 q 344 93 415 235 q 157 -102 274 -49 q -118 -156 40 -156 l -118 -71 z "},"{":{"ha":454,"x_min":39,"x_max":572,"o":"m 374 -156 q 199 -85 269 -156 q 128 138 128 -15 q 124 327 128 271 q 101 412 119 383 q 39 440 83 440 l 39 532 q 101 560 83 532 q 124 645 119 589 q 128 836 128 701 q 199 1059 128 989 q 374 1129 269 1129 l 572 1129 l 572 1044 l 474 1044 q 421 1024 436 1044 q 406 960 406 1003 l 401 650 q 363 534 401 581 q 253 488 325 488 q 363 440 325 488 q 401 322 401 393 l 406 13 q 421 -51 406 -31 q 474 -71 436 -71 l 572 -71 l 572 -156 l 374 -156 z "},"}":{"ha":454,"x_min":-118,"x_max":415,"o":"m -118 -71 l -19 -71 q 34 -51 18 -71 q 50 13 50 -31 l 53 322 q 91 440 53 393 q 201 488 129 488 q 91 534 129 488 q 53 650 53 581 l 50 960 q 34 1024 50 1003 q -19 1044 18 1044 l -118 1044 l -118 1129 l 81 1129 q 256 1059 185 1129 q 326 836 326 989 q 331 645 326 701 q 353 560 335 589 q 415 532 371 532 l 415 440 q 353 412 371 440 q 331 327 335 383 q 326 138 326 271 q 256 -85 326 -15 q 81 -156 185 -156 l -118 -156 l -118 -71 z "},"[":{"ha":375,"x_min":39,"x_max":533,"o":"m 39 1129 l 533 1129 l 533 1044 l 317 1044 l 317 -71 l 533 -71 l 533 -156 l 39 -156 l 39 1129 z "},"]":{"ha":375,"x_min":-158,"x_max":336,"o":"m -158 -71 l 60 -71 l 60 1044 l -158 1044 l -158 1129 l 336 1129 l 336 -156 l -158 -156 l -158 -71 z "},"-":{"ha":731,"x_min":50,"x_max":682,"o":"m 50 636 l 682 636 l 682 340 l 50 340 l 50 636 z "},"­":{"ha":0,"x_min":0,"x_max":0,"o":""},"–":{"ha":1403,"x_min":50,"x_max":1353,"o":"m 50 636 l 1353 636 l 1353 340 l 50 340 l 50 636 z "},"—":{"ha":2074,"x_min":50,"x_max":2025,"o":"m 50 636 l 2025 636 l 2025 340 l 50 340 l 50 636 z "},"_":{"ha":1363,"x_min":29,"x_max":1333,"o":"m 29 0 l 1333 0 l 1333 -296 l 29 -296 l 29 0 z "},"‚":{"ha":354,"x_min":39,"x_max":314,"o":"m 39 269 l 314 269 l 238 -156 l 39 -156 l 39 269 z "},"„":{"ha":688,"x_min":40,"x_max":649,"o":"m 40 -154 l 40 269 l 314 269 l 238 -154 l 40 -154 m 374 -154 l 374 269 l 649 269 l 572 -154 l 374 -154 z "},"“":{"ha":688,"x_min":39,"x_max":647,"o":"m 39 972 l 239 972 l 314 549 l 39 549 l 39 972 m 374 972 l 572 972 l 647 549 l 374 549 l 374 972 z "},"”":{"ha":688,"x_min":39,"x_max":647,"o":"m 39 972 l 314 972 l 314 549 l 115 549 l 39 972 m 374 972 l 647 972 l 647 549 l 450 549 l 374 972 z "},"‘":{"ha":354,"x_min":40,"x_max":315,"o":"m 40 549 l 40 972 l 315 972 l 239 549 l 40 549 z "},"’":{"ha":354,"x_min":39,"x_max":314,"o":"m 39 972 l 314 972 l 314 549 l 115 549 l 39 972 z "},"«":{"ha":1194,"x_min":39,"x_max":1156,"o":"m 39 488 l 215 882 l 646 882 l 471 488 l 646 92 l 215 92 l 39 488 m 550 488 l 725 882 l 1156 882 l 981 488 l 1156 92 l 725 92 l 550 488 z "},"»":{"ha":1194,"x_min":39,"x_max":1156,"o":"m 39 92 l 214 488 l 39 882 l 469 882 l 644 488 l 469 92 l 39 92 m 549 92 l 724 488 l 549 882 l 979 882 l 1156 488 l 979 92 l 549 92 z "},"\"":{"ha":688,"x_min":39,"x_max":647,"o":"m 39 972 l 314 972 l 279 549 l 74 549 l 39 972 m 374 972 l 647 972 l 614 549 l 407 549 l 374 972 z "},"'":{"ha":354,"x_min":39,"x_max":314,"o":"m 39 972 l 314 972 l 279 549 l 74 549 l 39 972 z "}," ":{"ha":593,"x_min":0,"x_max":0,"o":""},"¢":{"ha":1121,"x_min":39,"x_max":1082,"o":"m 1082 381 q 983 125 1063 231 q 869 31 935 58 q 708 -4 804 3 l 708 -156 l 432 -156 l 432 3 q 284 43 346 14 q 172 121 222 72 q 39 488 39 254 q 158 853 39 733 q 281 938 215 910 q 432 974 346 965 l 432 1129 l 708 1129 l 708 976 q 858 947 796 969 q 963 875 919 924 q 1036 744 1010 821 q 1067 593 1063 668 l 988 593 q 958 722 982 656 q 882 835 933 788 q 751 883 831 883 q 631 818 676 883 q 569 667 590 767 q 554 488 554 590 q 593 225 554 325 q 751 90 643 90 q 917 175 856 90 q 996 381 978 260 l 1082 381 z "},"¤":{"ha":983,"x_min":99,"x_max":885,"o":"m 788 488 q 767 379 788 429 l 885 261 l 717 94 l 600 211 q 492 190 550 190 q 383 211 433 190 l 267 94 l 99 261 l 217 379 q 196 488 196 429 q 217 594 196 544 l 99 713 l 267 881 l 385 763 q 492 783 435 783 q 600 764 549 783 l 717 881 l 885 713 l 768 596 q 788 488 788 544 m 360 354 q 420 313 386 328 q 492 299 454 299 q 563 313 529 299 q 625 354 597 328 q 679 488 679 411 q 625 619 679 563 q 563 660 597 646 q 492 675 529 675 q 420 660 454 675 q 360 619 386 646 q 304 488 304 564 q 360 354 304 410 z "},"$":{"ha":1132,"x_min":29,"x_max":1101,"o":"m 1101 317 q 1047 155 1101 226 q 890 42 993 83 l 890 -156 l 614 -156 l 614 -7 l 597 -7 q 500 -3 546 -7 l 500 -156 l 224 -156 l 224 56 q 112 108 161 79 q 35 163 63 138 l 81 225 q 224 143 136 179 l 224 390 q 79 505 129 438 q 29 658 29 572 q 76 809 29 740 q 214 921 124 878 l 214 1129 l 490 1129 l 490 981 l 514 981 q 613 976 567 981 l 613 1129 l 889 1129 l 889 915 q 981 871 940 894 q 1043 826 1021 847 l 996 764 q 889 828 956 797 l 889 585 q 1048 475 994 540 q 1101 317 1101 410 m 590 893 q 456 866 503 893 q 410 792 410 839 q 444 728 410 756 q 576 675 479 701 l 613 665 l 613 893 l 590 893 m 500 88 q 624 111 582 88 q 665 178 665 135 q 517 294 665 253 l 500 300 l 500 88 z "},"€":{"ha":1219,"x_min":39,"x_max":1181,"o":"m 1181 381 q 1082 125 1161 231 q 981 38 1038 65 q 858 1 925 10 q 682 -7 790 -7 q 435 23 529 -7 q 272 121 340 53 q 149 372 174 219 l 39 372 l 39 456 l 139 456 l 139 488 l 139 518 l 39 518 l 39 601 l 146 601 q 258 853 169 764 q 431 956 336 931 q 682 981 526 981 q 915 960 825 981 q 1061 875 1004 940 q 1135 744 1108 821 q 1165 593 1161 668 l 1086 593 q 1057 722 1081 656 q 982 835 1033 788 q 850 883 931 883 q 729 818 775 883 q 668 667 689 763 q 658 601 664 646 l 924 601 l 899 518 l 653 518 l 653 488 l 653 456 l 879 456 l 854 372 l 658 372 q 692 225 667 288 q 850 90 743 90 q 1015 175 954 90 q 1094 381 1076 260 l 1181 381 z "},"£":{"ha":993,"x_min":50,"x_max":944,"o":"m 944 83 l 944 0 l 50 0 q 89 108 51 0 q 133 260 119 200 q 147 383 147 321 q 144 447 147 425 l 50 447 l 50 531 l 133 531 l 129 550 q 118 651 118 606 q 219 890 118 799 q 535 981 321 981 q 900 825 789 981 l 824 788 q 635 885 750 885 q 533 849 568 885 q 497 749 497 813 q 508 665 497 711 q 539 550 518 618 l 544 531 l 796 531 l 796 447 l 558 447 q 563 381 563 414 q 548 240 563 306 q 511 108 533 174 l 503 83 l 944 83 z "},"¥":{"ha":1044,"x_min":39,"x_max":1004,"o":"m 818 478 l 997 478 l 997 394 l 786 394 l 786 332 l 997 332 l 997 249 l 786 249 l 786 0 l 296 0 l 296 249 l 69 249 l 69 332 l 296 332 l 296 394 l 69 394 l 69 478 l 258 478 l 39 972 l 529 972 l 729 522 l 897 972 l 1004 972 l 818 478 z "},"∕":{"ha":829,"x_min":29,"x_max":800,"o":"m 507 1129 l 800 1129 l 315 -156 l 29 -156 l 507 1129 z "},"+":{"ha":988,"x_min":99,"x_max":889,"o":"m 889 339 l 642 339 l 642 92 l 346 92 l 346 339 l 99 339 l 99 635 l 346 635 l 346 882 l 642 882 l 642 635 l 889 635 l 889 339 z "},"−":{"ha":988,"x_min":99,"x_max":889,"o":"m 99 635 l 889 635 l 889 339 l 99 339 l 99 635 z "},"×":{"ha":924,"x_min":99,"x_max":825,"o":"m 631 488 l 825 292 l 658 124 l 463 319 l 267 124 l 99 292 l 294 488 l 99 682 l 267 850 l 463 654 l 658 850 l 825 682 l 631 488 z "},"÷":{"ha":988,"x_min":99,"x_max":889,"o":"m 494 649 q 405 680 442 649 q 368 768 368 711 q 405 856 368 825 q 494 888 442 888 q 583 856 546 888 q 621 768 621 825 q 583 680 621 711 q 494 649 546 649 m 99 606 l 889 606 l 889 368 l 99 368 l 99 606 m 494 86 q 405 117 442 86 q 368 206 368 149 q 405 294 368 263 q 494 325 442 325 q 583 294 546 325 q 621 206 621 263 q 583 117 621 149 q 494 86 546 86 z "},"=":{"ha":1086,"x_min":99,"x_max":988,"o":"m 99 832 l 988 832 l 988 556 l 99 556 l 99 832 m 99 419 l 988 419 l 988 143 l 99 143 l 99 419 z "},">":{"ha":972,"x_min":99,"x_max":874,"o":"m 874 617 l 874 357 l 99 92 l 99 425 l 631 597 l 99 781 l 99 882 l 874 617 z "},"<":{"ha":972,"x_min":99,"x_max":874,"o":"m 874 549 l 340 376 l 874 193 l 874 92 l 99 357 l 99 617 l 874 882 l 874 549 z "},"≥":{"ha":829,"x_min":99,"x_max":731,"o":"m 99 415 l 514 558 l 99 692 l 99 965 l 731 749 l 731 532 l 99 314 l 99 415 m 99 254 l 731 254 l 731 47 l 99 47 l 99 254 z "},"≤":{"ha":829,"x_min":99,"x_max":731,"o":"m 99 532 l 99 749 l 731 965 l 731 692 l 317 558 l 731 415 l 731 314 l 99 532 m 99 254 l 731 254 l 731 47 l 99 47 l 99 254 z "},"±":{"ha":829,"x_min":99,"x_max":731,"o":"m 731 749 l 731 532 l 524 532 l 524 333 l 306 333 l 306 532 l 99 532 l 99 749 l 306 749 l 306 946 l 524 946 l 524 749 l 731 749 m 99 254 l 731 254 l 731 47 l 99 47 l 99 254 z "},"~":{"ha":1046,"x_min":50,"x_max":996,"o":"m 760 285 q 649 299 700 285 q 524 340 597 313 q 394 381 443 368 q 286 394 344 394 q 147 378 208 394 q 50 336 86 361 l 50 613 q 147 669 86 646 q 286 692 208 692 q 397 678 346 692 q 524 636 447 664 q 649 594 597 608 q 760 581 700 581 q 899 598 838 581 q 996 640 960 615 l 996 364 q 899 308 960 331 q 760 285 838 285 z "},"¬":{"ha":988,"x_min":99,"x_max":889,"o":"m 889 93 l 593 93 l 593 340 l 99 340 l 99 636 l 889 636 l 889 93 z "},"^":{"ha":789,"x_min":39,"x_max":750,"o":"m 647 340 l 506 756 l 371 340 l 39 340 l 256 972 l 532 972 l 750 340 l 647 340 z "},"µ":{"ha":1011,"x_min":39,"x_max":972,"o":"m 972 972 l 972 292 q 922 109 972 174 q 772 19 872 44 q 506 -7 672 -7 q 121 86 229 -7 l 121 -89 l 39 -89 l 39 972 l 569 972 l 569 292 q 613 148 569 193 q 729 103 657 103 q 890 292 890 103 l 890 972 l 972 972 z "},"%":{"ha":1956,"x_min":39,"x_max":1915,"o":"m 825 0 l 561 0 l 1079 890 l 729 890 q 810 797 782 851 q 839 672 839 742 q 786 510 839 578 q 642 408 733 443 q 439 374 551 374 q 236 408 326 374 q 92 510 146 443 q 39 672 39 578 q 92 835 39 767 q 237 938 146 903 q 439 972 328 972 l 1389 972 l 825 0 m 439 456 q 509 507 490 456 q 528 672 528 558 q 509 838 528 786 q 439 890 490 890 q 369 838 388 890 q 350 672 350 786 q 369 508 350 560 q 439 456 388 456 m 1515 600 q 1719 565 1628 600 q 1863 463 1810 531 q 1915 300 1915 394 q 1863 137 1915 204 q 1719 35 1810 69 q 1515 0 1628 0 q 1313 35 1403 0 q 1169 137 1222 69 q 1115 300 1115 204 q 1169 462 1115 394 q 1313 565 1222 529 q 1515 600 1404 600 m 1515 82 q 1585 134 1567 82 q 1604 300 1604 186 q 1585 466 1604 414 q 1515 518 1567 518 q 1445 466 1464 518 q 1426 300 1426 414 q 1445 134 1426 186 q 1515 82 1464 82 z "},"→":{"ha":2854,"x_min":50,"x_max":2814,"o":"m 2025 93 l 2025 340 l 50 340 l 50 636 l 2025 636 l 2025 883 l 2814 488 l 2025 93 z "},"←":{"ha":2854,"x_min":39,"x_max":2804,"o":"m 2804 636 l 2804 340 l 829 340 l 829 93 l 39 488 l 829 883 l 829 636 l 2804 636 z "},"@":{"ha":1067,"x_min":39,"x_max":1026,"o":"m 533 -7 q 286 60 400 -7 q 106 240 172 126 q 39 488 39 353 q 106 734 39 621 q 286 914 172 847 q 533 981 400 981 q 780 914 667 981 q 960 734 893 847 q 1026 488 1026 621 q 993 304 1026 390 l 579 304 l 533 408 l 401 408 l 363 304 l 299 304 l 450 708 l 619 708 l 750 413 l 911 413 q 918 488 918 442 q 867 680 918 592 q 727 820 815 768 q 533 872 639 872 q 341 820 429 872 q 201 680 253 768 q 149 488 149 592 q 201 294 149 383 q 341 153 253 206 q 533 101 429 101 q 661 124 597 101 l 706 24 q 533 -7 621 -7 m 507 467 l 461 567 l 424 467 l 507 467 z "},"&":{"ha":1456,"x_min":50,"x_max":1406,"o":"m 1406 621 q 1336 237 1406 375 q 1097 42 1267 99 l 1150 -89 l 885 -89 q 767 -67 825 -89 q 668 -7 708 -46 q 315 26 449 -4 q 116 128 182 57 q 50 324 50 199 q 141 532 50 463 q 401 618 232 601 q 375 749 375 692 q 481 926 375 871 q 740 981 586 981 q 969 919 888 981 q 1068 771 1050 858 l 993 771 q 941 856 978 821 q 847 892 904 892 q 789 840 789 892 q 801 778 789 814 q 838 682 813 743 l 850 653 l 969 358 q 1010 621 1010 471 l 1406 621 m 447 314 q 485 142 447 193 q 610 88 522 90 l 465 456 q 447 314 447 407 z "},"¶":{"ha":1331,"x_min":39,"x_max":1292,"o":"m 511 456 l 388 456 q 212 497 292 456 q 85 615 132 539 q 39 792 39 692 q 86 967 39 890 q 214 1085 133 1043 q 390 1128 294 1128 l 936 1128 l 936 -156 l 511 -156 l 511 456 m 1015 1128 l 1292 1128 l 1292 -156 l 1015 -156 l 1015 1128 z "},"§":{"ha":1242,"x_min":39,"x_max":1201,"o":"m 1115 303 q 1172 242 1153 279 q 1192 150 1192 206 q 1062 -79 1192 4 q 658 -162 932 -162 q 335 -137 490 -162 q 69 -74 181 -111 l 93 4 q 310 -52 192 -29 q 539 -75 429 -75 q 664 -53 628 -75 q 706 15 700 -31 q 685 84 711 54 q 614 125 660 114 l 313 190 q 115 298 192 222 q 39 482 39 374 q 117 668 39 590 q 67 731 83 693 q 50 824 50 768 q 171 1051 50 967 q 533 1136 292 1136 q 808 1115 679 1136 q 1024 1061 936 1093 l 1001 989 q 824 1035 922 1017 q 631 1054 725 1054 q 492 1030 535 1054 q 450 951 450 1006 q 476 885 450 914 q 549 847 503 857 l 893 774 q 1115 672 1028 743 q 1201 492 1201 600 q 1115 303 1201 378 m 242 596 q 267 527 239 557 q 342 486 294 497 l 883 374 l 960 356 q 963 367 963 364 q 942 436 967 407 q 871 476 917 465 l 322 592 l 244 613 q 242 596 242 601 z "},"©":{"ha":1067,"x_min":39,"x_max":1026,"o":"m 533 -7 q 286 60 400 -7 q 106 240 172 126 q 39 488 39 353 q 106 734 39 621 q 286 914 172 847 q 533 981 400 981 q 780 914 667 981 q 960 734 893 847 q 1026 488 1026 621 q 960 240 1026 353 q 780 60 893 126 q 533 -7 667 -7 m 533 101 q 726 153 638 101 q 866 294 814 206 q 918 488 918 383 q 866 680 918 592 q 726 820 814 768 q 533 872 638 872 q 341 820 429 872 q 201 680 253 768 q 149 488 149 592 q 201 294 149 383 q 341 153 253 206 q 533 101 429 101 m 544 249 q 426 263 472 249 q 347 311 381 278 q 282 488 282 376 q 340 664 282 606 q 424 713 378 701 q 544 725 471 725 q 656 715 614 725 q 726 674 699 706 q 778 538 769 625 l 715 538 q 689 623 711 585 q 625 661 667 661 q 549 603 567 661 q 531 488 531 544 q 625 314 531 314 q 687 348 663 314 q 719 436 711 382 l 785 436 q 736 313 775 363 q 663 260 706 272 q 544 249 621 249 z "},"®":{"ha":1067,"x_min":39,"x_max":1026,"o":"m 533 -7 q 286 60 400 -7 q 106 240 172 126 q 39 488 39 353 q 106 734 39 621 q 286 914 172 847 q 533 981 400 981 q 780 914 667 981 q 960 734 893 847 q 1026 488 1026 621 q 960 240 1026 353 q 780 60 893 126 q 533 -7 667 -7 m 533 101 q 727 153 639 101 q 867 294 815 206 q 918 488 918 383 q 867 680 918 592 q 727 820 815 768 q 533 872 639 872 q 341 820 429 872 q 201 680 253 768 q 149 488 149 592 q 201 294 149 383 q 341 153 253 206 q 533 101 429 101 m 288 699 l 664 699 q 753 662 717 699 q 790 572 790 625 q 767 500 790 532 q 707 454 744 468 q 759 421 739 446 q 779 364 779 396 l 779 275 l 581 275 l 581 374 q 574 404 581 396 q 556 422 567 415 q 528 432 539 431 l 500 436 l 483 436 l 483 275 l 288 275 l 288 699 m 504 489 q 559 512 536 489 q 582 567 582 535 q 559 622 582 599 q 504 644 536 644 l 483 644 l 483 488 l 504 489 z "},"℗":{"ha":1067,"x_min":39,"x_max":1026,"o":"m 533 -7 q 286 60 400 -7 q 106 240 172 126 q 39 488 39 353 q 106 734 39 621 q 286 914 172 847 q 533 981 400 981 q 780 914 667 981 q 960 734 893 847 q 1026 488 1026 621 q 960 240 1026 353 q 780 60 893 126 q 533 -7 667 -7 m 533 101 q 726 153 638 101 q 866 294 814 206 q 918 488 918 383 q 866 680 918 592 q 726 820 814 768 q 533 872 638 872 q 341 820 429 872 q 201 680 253 768 q 149 488 149 592 q 201 294 149 383 q 341 153 253 206 q 533 101 429 101 m 299 699 l 668 699 q 761 660 722 699 q 800 565 800 621 q 761 472 800 511 q 668 433 722 433 l 494 433 l 494 275 l 299 275 l 299 699 m 514 489 q 570 512 547 489 q 593 567 593 535 q 570 622 593 599 q 514 644 547 644 l 494 644 l 494 488 l 514 489 z "},"™":{"ha":1204,"x_min":39,"x_max":1164,"o":"m 193 890 l 39 890 l 39 972 l 571 972 l 571 890 l 417 890 l 417 549 l 193 549 l 193 890 m 610 972 l 804 972 l 893 796 l 964 972 l 1164 972 l 1164 549 l 969 549 l 969 781 l 881 549 l 788 549 l 692 767 l 692 549 l 610 549 l 610 972 z "},"°":{"ha":958,"x_min":79,"x_max":879,"o":"m 479 374 q 276 408 367 374 q 132 510 185 443 q 79 674 79 578 q 132 835 79 768 q 276 938 185 903 q 479 972 367 972 q 683 938 592 972 q 826 835 774 903 q 879 674 879 768 q 826 510 879 578 q 683 408 774 443 q 479 374 592 374 m 479 456 q 549 508 531 456 q 568 674 568 560 q 549 839 568 788 q 479 890 531 890 q 409 838 428 890 q 390 674 390 786 q 409 508 390 560 q 479 456 428 456 z "},"|":{"ha":435,"x_min":79,"x_max":356,"o":"m 79 1129 l 356 1129 l 356 -156 l 79 -156 l 79 1129 z "},"¦":{"ha":435,"x_min":79,"x_max":356,"o":"m 79 1129 l 356 1129 l 356 592 l 79 592 l 79 1129 m 79 385 l 356 385 l 356 -153 l 79 -153 l 79 385 z "},"̈":{"ha":0,"x_min":-574,"x_max":-29,"o":"m -465 1031 q -542 1056 -510 1031 q -574 1131 -574 1082 q -542 1206 -574 1179 q -465 1232 -511 1232 q -390 1206 -421 1232 q -358 1131 -358 1179 q -390 1056 -358 1082 q -465 1031 -421 1031 m -136 1031 q -212 1056 -181 1031 q -243 1131 -243 1082 q -212 1206 -243 1179 q -136 1232 -181 1232 q -60 1206 -92 1232 q -29 1131 -29 1179 q -60 1056 -29 1082 q -136 1031 -92 1031 z "},"̇":{"ha":0,"x_min":-196,"x_max":18,"o":"m -89 1029 q -165 1056 -133 1029 q -196 1131 -196 1082 q -165 1206 -196 1179 q -89 1232 -133 1232 q -13 1206 -44 1232 q 18 1131 18 1179 q -13 1056 18 1082 q -89 1029 -44 1029 z "},"̀":{"ha":0,"x_min":-642,"x_max":-29,"o":"m -642 1225 l -246 1225 l -29 1036 l -424 1036 l -642 1225 z "},"́":{"ha":0,"x_min":-642,"x_max":-29,"o":"m -424 1225 l -29 1225 l -246 1036 l -642 1036 l -424 1225 z "},"̂":{"ha":0,"x_min":-642,"x_max":-29,"o":"m -335 1225 l -29 1036 l -642 1036 l -335 1225 z "},"̊":{"ha":0,"x_min":-439,"x_max":-29,"o":"m -233 1022 q -381 1047 -324 1022 q -439 1140 -439 1072 q -233 1260 -439 1260 q -29 1140 -29 1260 q -87 1047 -29 1072 q -233 1022 -144 1022 m -233 1085 q -206 1100 -212 1085 q -200 1140 -200 1115 q -206 1182 -200 1167 q -233 1197 -212 1197 q -262 1182 -256 1197 q -268 1140 -268 1167 q -262 1100 -268 1115 q -233 1085 -256 1085 z "},"̃":{"ha":0,"x_min":-749,"x_max":-29,"o":"m -137 1225 q -168 1187 -144 1203 q -232 1171 -192 1171 q -290 1178 -264 1171 q -356 1200 -315 1185 q -433 1226 -399 1217 q -512 1235 -468 1235 q -676 1177 -618 1235 q -749 1036 -735 1119 l -639 1036 q -609 1076 -632 1060 q -546 1092 -586 1092 q -487 1084 -514 1092 q -422 1063 -460 1076 q -344 1035 -379 1044 q -264 1026 -308 1026 q -100 1084 -158 1026 q -29 1225 -42 1142 l -137 1225 z "},"̧":{"ha":0,"x_min":-524,"x_max":-112,"o":"m -317 -293 q -463 -268 -406 -293 q -524 -175 -521 -243 l -457 -175 q -425 -217 -453 -204 q -361 -231 -397 -231 q -300 -214 -318 -231 q -282 -175 -282 -197 q -312 -131 -282 -144 q -417 -118 -343 -118 l -379 26 l -196 26 l -225 -64 q -112 -175 -112 -86 q -171 -267 -112 -240 q -317 -293 -229 -293 z "},"̵":{"ha":0,"x_min":-733,"x_max":-29,"o":"m -733 531 l -29 531 l -29 447 l -733 447 l -733 531 z "},"̸":{"ha":0,"x_min":-442,"x_max":264,"o":"m -442 235 l 67 826 l 264 743 l -243 151 l -442 235 z "},"´":{"ha":593,"x_min":29,"x_max":642,"o":"m 247 1225 l 642 1225 l 425 1036 l 29 1036 l 247 1225 z "},"¸":{"ha":593,"x_min":69,"x_max":481,"o":"m 276 -293 q 130 -268 188 -293 q 69 -175 72 -243 l 136 -175 q 168 -217 140 -204 q 232 -231 196 -231 q 293 -214 275 -231 q 311 -175 311 -197 q 281 -131 311 -144 q 176 -118 250 -118 l 214 26 l 397 26 l 368 -64 q 481 -175 481 -86 q 422 -267 481 -240 q 276 -293 364 -293 z "},"ˆ":{"ha":593,"x_min":29,"x_max":642,"o":"m 336 1225 l 642 1036 l 29 1036 l 336 1225 z "},"¨":{"ha":593,"x_min":29,"x_max":574,"o":"m 138 1031 q 61 1056 93 1031 q 29 1131 29 1082 q 60 1206 29 1179 q 138 1232 92 1232 q 213 1206 182 1232 q 244 1131 244 1179 q 213 1056 244 1082 q 138 1031 182 1031 m 467 1031 q 391 1056 422 1031 q 360 1131 360 1082 q 391 1206 360 1179 q 467 1232 422 1232 q 542 1206 511 1232 q 574 1131 574 1179 q 542 1056 574 1082 q 467 1031 511 1031 z "},"˙":{"ha":593,"x_min":397,"x_max":611,"o":"m 504 1029 q 428 1056 460 1029 q 397 1131 397 1082 q 428 1206 397 1179 q 504 1232 460 1232 q 580 1206 549 1232 q 611 1131 611 1179 q 580 1056 611 1082 q 504 1029 549 1029 z "},"`":{"ha":593,"x_min":29,"x_max":642,"o":"m 29 1225 l 425 1225 l 642 1036 l 247 1036 l 29 1225 z "},"¯":{"ha":671,"x_min":29,"x_max":642,"o":"m 29 1225 l 642 1225 l 642 1036 l 29 1036 l 29 1225 z "},"˚":{"ha":593,"x_min":29,"x_max":439,"o":"m 235 1022 q 87 1047 144 1022 q 29 1140 29 1072 q 235 1260 29 1260 q 439 1140 439 1260 q 381 1047 439 1072 q 235 1022 324 1022 m 235 1085 q 262 1100 256 1085 q 268 1140 268 1115 q 262 1182 268 1167 q 235 1197 256 1197 q 206 1182 213 1197 q 200 1140 200 1167 q 206 1100 200 1115 q 235 1085 213 1085 z "},"˜":{"ha":593,"x_min":29,"x_max":749,"o":"m 640 1225 q 610 1187 633 1203 q 546 1171 586 1171 q 488 1178 514 1171 q 422 1200 463 1185 q 344 1226 379 1217 q 265 1235 310 1235 q 101 1177 160 1235 q 29 1036 43 1119 l 139 1036 q 169 1076 146 1060 q 232 1092 192 1092 q 291 1084 264 1092 q 356 1063 318 1076 q 434 1035 399 1044 q 514 1026 469 1026 q 678 1084 619 1026 q 749 1225 736 1142 l 640 1225 z "},"":{"ha":1051,"x_min":39,"x_max":1013,"o":"m 39 972 l 1013 972 l 1013 0 l 39 0 l 39 972 m 411 525 l 411 731 l 565 525 l 668 525 l 668 835 l 643 835 l 643 679 l 514 835 l 385 835 l 385 525 l 411 525 m 471 139 l 525 283 l 589 139 l 722 139 l 839 447 l 806 447 l 721 219 l 619 447 l 553 447 l 467 214 l 364 447 l 214 447 l 350 139 l 471 139 z "},"":{"ha":593,"x_min":0,"x_max":0,"o":""},"":{"ha":593,"x_min":0,"x_max":0,"o":""}}}
